<mxfile host="app.diagrams.net" modified="2020-10-10T01:31:38.972Z" agent="5.0 (X11; Linux x86_64) AppleWebKit/537.36 (KHTML, like Gecko) Chrome/77.0.3865.120 Safari/537.36" etag="oa3jUgNnHadD2LQg-Hqw" version="13.7.9" type="github" pages="2">
  <diagram id="fNKAHcspk09XAcjnbf-g" name="工单管理">
    <mxGraphModel dx="1035" dy="594" grid="1" gridSize="10" guides="1" tooltips="1" connect="1" arrows="1" fold="1" page="1" pageScale="1" pageWidth="827" pageHeight="1169" math="0" shadow="0">
      <root>
        <mxCell id="0" />
        <mxCell id="NJt9awCA1hXl86DGp1sZ-11" value="可视区域" parent="0" />
        <mxCell id="wAlXlOLfTSp1UA3SI0B5-3" value="&lt;span style=&quot;color: rgba(0 , 0 , 0 , 0) ; font-family: monospace ; font-size: 0px&quot;&gt;%3CmxGraphModel%3E%3Croot%3E%3CmxCell%20id%3D%220%22%2F%3E%3CmxCell%20id%3D%221%22%20parent%3D%220%22%2F%3E%3CmxCell%20id%3D%222%22%20value%3D%22%E4%BA%A7%E5%93%81%E7%BA%BF%22%20style%3D%22text%3Bhtml%3D1%3Balign%3Dcenter%3BverticalAlign%3Dmiddle%3Bresizable%3D0%3Bpoints%3D%5B%5D%3Bautosize%3D1%3BfontSize%3D14%3B%22%20vertex%3D%221%22%20parent%3D%221%22%3E%3CmxGeometry%20x%3D%22120%22%20y%3D%22292%22%20width%3D%2260%22%20height%3D%2220%22%20as%3D%22geometry%22%2F%3E%3C%2FmxCell%3E%3CmxCell%20id%3D%223%22%20value%3D%22%E4%BA%A7%E5%93%81%E5%B0%8F%E7%B1%BB%22%20style%3D%22text%3Bhtml%3D1%3Balign%3Dcenter%3BverticalAlign%3Dmiddle%3Bresizable%3D0%3Bpoints%3D%5B%5D%3Bautosize%3D1%3BfontSize%3D14%3B%22%20vertex%3D%221%22%20parent%3D%221%22%3E%3CmxGeometry%20x%3D%22280%22%20y%3D%22292%22%20width%3D%2270%22%20height%3D%2220%22%20as%3D%22geometry%22%2F%3E%3C%2FmxCell%3E%3CmxCell%20id%3D%224%22%20value%3D%22%E9%9C%80%E6%B1%82%E6%9D%A5%E6%BA%90%22%20style%3D%22text%3Bhtml%3D1%3Balign%3Dcenter%3BverticalAlign%3Dmiddle%3Bresizable%3D0%3Bpoints%3D%5B%5D%3Bautosize%3D1%3BfontSize%3D14%3B%22%20vertex%3D%221%22%20parent%3D%221%22%3E%3CmxGeometry%20x%3D%22450%22%20y%3D%22292%22%20width%3D%2270%22%20height%3D%2220%22%20as%3D%22geometry%22%2F%3E%3C%2FmxCell%3E%3CmxCell%20id%3D%225%22%20value%3D%22%E5%B7%A5%E5%8D%95%E7%BC%96%E5%8F%B7%22%20style%3D%22text%3Bhtml%3D1%3Balign%3Dcenter%3BverticalAlign%3Dmiddle%3Bresizable%3D0%3Bpoints%3D%5B%5D%3Bautosize%3D1%3BfontSize%3D14%3B%22%20vertex%3D%221%22%20parent%3D%221%22%3E%3CmxGeometry%20x%3D%22110%22%20y%3D%22325%22%20width%3D%2270%22%20height%3D%2220%22%20as%3D%22geometry%22%2F%3E%3C%2FmxCell%3E%3CmxCell%20id%3D%226%22%20value%3D%22%E4%BC%A0%E7%A5%A8%E5%8F%B7%22%20style%3D%22text%3Bhtml%3D1%3Balign%3Dcenter%3BverticalAlign%3Dmiddle%3Bresizable%3D0%3Bpoints%3D%5B%5D%3Bautosize%3D1%3BfontSize%3D14%3B%22%20vertex%3D%221%22%20parent%3D%221%22%3E%3CmxGeometry%20x%3D%22290%22%20y%3D%22325%22%20width%3D%2260%22%20height%3D%2220%22%20as%3D%22geometry%22%2F%3E%3C%2FmxCell%3E%3CmxCell%20id%3D%227%22%20value%3D%22%26lt%3Bspan%26gt%3BSelect%26lt%3B%2Fspan%26gt%3B%22%20style%3D%22rounded%3D0%3BwhiteSpace%3Dwrap%3Bhtml%3D1%3BfontSize%3D14%3B%22%20vertex%3D%221%22%20parent%3D%221%22%3E%3CmxGeometry%20x%3D%22185%22%20y%3D%22290%22%20width%3D%2270%22%20height%3D%2225%22%20as%3D%22geometry%22%2F%3E%3C%2FmxCell%3E%3CmxCell%20id%3D%228%22%20value%3D%22%26lt%3Bspan%26gt%3BSelect%26lt%3B%2Fspan%26gt%3B%22%20style%3D%22rounded%3D0%3BwhiteSpace%3Dwrap%3Bhtml%3D1%3BfontSize%3D14%3B%22%20vertex%3D%221%22%20parent%3D%221%22%3E%3CmxGeometry%20x%3D%22356%22%20y%3D%22290%22%20width%3D%2270%22%20height%3D%2225%22%20as%3D%22geometry%22%2F%3E%3C%2FmxCell%3E%3CmxCell%20id%3D%229%22%20value%3D%22%26lt%3Bspan%26gt%3BSelect%26lt%3B%2Fspan%26gt%3B%22%20style%3D%22rounded%3D0%3BwhiteSpace%3Dwrap%3Bhtml%3D1%3BfontSize%3D14%3B%22%20vertex%3D%221%22%20parent%3D%221%22%3E%3CmxGeometry%20x%3D%22526%22%20y%3D%22287%22%20width%3D%2270%22%20height%3D%2225%22%20as%3D%22geometry%22%2F%3E%3C%2FmxCell%3E%3CmxCell%20id%3D%2210%22%20value%3D%22%EF%BC%88%EF%BC%89%22%20style%3D%22rounded%3D0%3BwhiteSpace%3Dwrap%3Bhtml%3D1%3BfontSize%3D14%3BstrokeColor%3D%23666666%3BfontColor%3D%23333333%3BfillColor%3D%23D6D6D6%3B%22%20vertex%3D%221%22%20parent%3D%221%22%3E%3CmxGeometry%20x%3D%22185%22%20y%3D%22324%22%20width%3D%2270%22%20height%3D%2225%22%20as%3D%22geometry%22%2F%3E%3C%2FmxCell%3E%3CmxCell%20id%3D%2211%22%20value%3D%22Input%22%20style%3D%22rounded%3D0%3BwhiteSpace%3Dwrap%3Bhtml%3D1%3BfontSize%3D14%3B%22%20vertex%3D%221%22%20parent%3D%221%22%3E%3CmxGeometry%20x%3D%22356%22%20y%3D%22325%22%20width%3D%2270%22%20height%3D%2225%22%20as%3D%22geometry%22%2F%3E%3C%2FmxCell%3E%3CmxCell%20id%3D%2212%22%20value%3D%22%E5%9E%8B%E5%8F%B7%22%20style%3D%22text%3Bhtml%3D1%3Balign%3Dcenter%3BverticalAlign%3Dmiddle%3Bresizable%3D0%3Bpoints%3D%5B%5D%3Bautosize%3D1%3BfontSize%3D14%3B%22%20vertex%3D%221%22%20parent%3D%221%22%3E%3CmxGeometry%20x%3D%22473%22%20y%3D%22326%22%20width%3D%2240%22%20height%3D%2220%22%20as%3D%22geometry%22%2F%3E%3C%2FmxCell%3E%3CmxCell%20id%3D%2213%22%20value%3D%22Select%22%20style%3D%22rounded%3D0%3BwhiteSpace%3Dwrap%3Bhtml%3D1%3BfontSize%3D14%3B%22%20vertex%3D%221%22%20parent%3D%221%22%3E%3CmxGeometry%20x%3D%22526%22%20y%3D%22325%22%20width%3D%2270%22%20height%3D%2225%22%20as%3D%22geometry%22%2F%3E%3C%2FmxCell%3E%3CmxCell%20id%3D%2214%22%20value%3D%22%E6%95%B0%E9%87%8F%22%20style%3D%22text%3Bhtml%3D1%3Balign%3Dcenter%3BverticalAlign%3Dmiddle%3Bresizable%3D0%3Bpoints%3D%5B%5D%3Bautosize%3D1%3BfontSize%3D14%3B%22%20vertex%3D%221%22%20parent%3D%221%22%3E%3CmxGeometry%20x%3D%22132%22%20y%3D%22361%22%20width%3D%2240%22%20height%3D%2220%22%20as%3D%22geometry%22%2F%3E%3C%2FmxCell%3E%3CmxCell%20id%3D%2215%22%20value%3D%22Number%22%20style%3D%22rounded%3D0%3BwhiteSpace%3Dwrap%3Bhtml%3D1%3BfontSize%3D14%3B%22%20vertex%3D%221%22%20parent%3D%221%22%3E%3CmxGeometry%20x%3D%22185%22%20y%3D%22360%22%20width%3D%2270%22%20height%3D%2225%22%20as%3D%22geometry%22%2F%3E%3C%2FmxCell%3E%3CmxCell%20id%3D%2216%22%20value%3D%22%E7%89%B9%E6%AE%8A%E8%AF%B4%E6%98%8E%22%20style%3D%22text%3Bhtml%3D1%3Balign%3Dcenter%3BverticalAlign%3Dmiddle%3Bresizable%3D0%3Bpoints%3D%5B%5D%3Bautosize%3D1%3BfontSize%3D14%3B%22%20vertex%3D%221%22%20parent%3D%221%22%3E%3CmxGeometry%20x%3D%22100%22%20y%3D%22400%22%20width%3D%2270%22%20height%3D%2220%22%20as%3D%22geometry%22%2F%3E%3C%2FmxCell%3E%3CmxCell%20id%3D%2217%22%20value%3D%22Text%22%20style%3D%22rounded%3D0%3BwhiteSpace%3Dwrap%3Bhtml%3D1%3BfontSize%3D14%3B%22%20vertex%3D%221%22%20parent%3D%221%22%3E%3CmxGeometry%20x%3D%22183%22%20y%3D%22400%22%20width%3D%22407%22%20height%3D%2280%22%20as%3D%22geometry%22%2F%3E%3C%2FmxCell%3E%3CmxCell%20id%3D%2218%22%20value%3D%22%E9%9C%80%E6%B1%82%E6%96%87%E4%BB%B6%22%20style%3D%22text%3Bhtml%3D1%3Balign%3Dcenter%3BverticalAlign%3Dmiddle%3Bresizable%3D0%3Bpoints%3D%5B%5D%3Bautosize%3D1%3BfontSize%3D14%3B%22%20vertex%3D%221%22%20parent%3D%221%22%3E%3CmxGeometry%20x%3D%2295%22%20y%3D%22500%22%20width%3D%2270%22%20height%3D%2220%22%20as%3D%22geometry%22%2F%3E%3C%2FmxCell%3E%3CmxCell%20id%3D%2219%22%20value%3D%22%E7%82%B9%E5%87%BB%E4%B8%8A%E4%BC%A0%22%20style%3D%22rounded%3D1%3BwhiteSpace%3Dwrap%3Bhtml%3D1%3BfontSize%3D14%3B%22%20vertex%3D%221%22%20parent%3D%221%22%3E%3CmxGeometry%20x%3D%22183%22%20y%3D%22495%22%20width%3D%2270%22%20height%3D%2230%22%20as%3D%22geometry%22%2F%3E%3C%2FmxCell%3E%3CmxCell%20id%3D%2220%22%20value%3D%22List%22%20style%3D%22rounded%3D0%3BwhiteSpace%3Dwrap%3Bhtml%3D1%3BfontSize%3D14%3B%22%20vertex%3D%221%22%20parent%3D%221%22%3E%3CmxGeometry%20x%3D%22183%22%20y%3D%22540%22%20width%3D%22417%22%20height%3D%2270%22%20as%3D%22geometry%22%2F%3E%3C%2FmxCell%3E%3CmxCell%20id%3D%2221%22%20value%3D%22%E5%B7%B2%E4%B8%8A%E4%BC%A0%E9%99%84%E4%BB%B6%22%20style%3D%22text%3Bhtml%3D1%3Balign%3Dcenter%3BverticalAlign%3Dmiddle%3Bresizable%3D0%3Bpoints%3D%5B%5D%3Bautosize%3D1%3BfontSize%3D14%3B%22%20vertex%3D%221%22%20parent%3D%221%22%3E%3CmxGeometry%20x%3D%2275%22%20y%3D%22540%22%20width%3D%2290%22%20height%3D%2220%22%20as%3D%22geometry%22%2F%3E%3C%2FmxCell%3E%3CmxCell%20id%3D%2222%22%20value%3D%22%E9%9C%80%E6%B1%82%E6%96%87%E6%A1%A3.doc%26amp%3Bnbsp%3B%22%20style%3D%22rounded%3D0%3BwhiteSpace%3Dwrap%3Bhtml%3D1%3BfontSize%3D14%3B%22%20vertex%3D%221%22%20parent%3D%221%22%3E%3CmxGeometry%20x%3D%22190%22%20y%3D%22550%22%20width%3D%22120%22%20height%3D%2230%22%20as%3D%22geometry%22%2F%3E%3C%2FmxCell%3E%3CmxCell%20id%3D%2223%22%20value%3D%22%22%20style%3D%22shape%3DsumEllipse%3Bperimeter%3DellipsePerimeter%3BwhiteSpace%3Dwrap%3Bhtml%3D1%3BbackgroundOutline%3D1%3Brounded%3D1%3Bglass%3D0%3Bsketch%3D0%3BfontSize%3D20%3B%22%20vertex%3D%221%22%20parent%3D%221%22%3E%3CmxGeometry%20x%3D%22290%22%20y%3D%22557%22%20width%3D%2216%22%20height%3D%2216%22%20as%3D%22geometry%22%2F%3E%3C%2FmxCell%3E%3CmxCell%20id%3D%2224%22%20value%3D%22%E5%88%9B%E5%BB%BA%E4%BA%BA%22%20style%3D%22text%3Bhtml%3D1%3Balign%3Dright%3BverticalAlign%3Dmiddle%3Bresizable%3D0%3Bpoints%3D%5B%5D%3Bautosize%3D1%3BfontSize%3D14%3B%22%20vertex%3D%221%22%20parent%3D%221%22%3E%3CmxGeometry%20x%3D%2295%22%20y%3D%22640%22%20width%3D%2260%22%20height%3D%2220%22%20as%3D%22geometry%22%2F%3E%3C%2FmxCell%3E%3CmxCell%20id%3D%2225%22%20value%3D%22%E5%BC%A0%E6%9E%97%202020-09-22%22%20style%3D%22text%3Bhtml%3D1%3Balign%3Dright%3BverticalAlign%3Dmiddle%3Bresizable%3D0%3Bpoints%3D%5B%5D%3Bautosize%3D1%3BfontSize%3D14%3B%22%20vertex%3D%221%22%20parent%3D%221%22%3E%3CmxGeometry%20x%3D%22162%22%20y%3D%22640%22%20width%3D%22120%22%20height%3D%2220%22%20as%3D%22geometry%22%2F%3E%3C%2FmxCell%3E%3CmxCell%20id%3D%2226%22%20value%3D%22%E6%96%99%E5%8F%B7%22%20style%3D%22text%3Bhtml%3D1%3Balign%3Dcenter%3BverticalAlign%3Dmiddle%3Bresizable%3D0%3Bpoints%3D%5B%5D%3Bautosize%3D1%3BfontSize%3D14%3B%22%20vertex%3D%221%22%20parent%3D%221%22%3E%3CmxGeometry%20x%3D%22295%22%20y%3D%22363%22%20width%3D%2240%22%20height%3D%2220%22%20as%3D%22geometry%22%2F%3E%3C%2FmxCell%3E%3CmxCell%20id%3D%2227%22%20value%3D%22%26lt%3Bspan%26gt%3BSelect%26lt%3B%2Fspan%26gt%3B%22%20style%3D%22rounded%3D0%3BwhiteSpace%3Dwrap%3Bhtml%3D1%3BfontSize%3D14%3B%22%20vertex%3D%221%22%20parent%3D%221%22%3E%3CmxGeometry%20x%3D%22356%22%20y%3D%22361%22%20width%3D%2270%22%20height%3D%2225%22%20as%3D%22geometry%22%2F%3E%3C%2FmxCell%3E%3C%2Froot%3E%3C%2FmxGraphModel%3E&lt;/span&gt;" style="rounded=0;whiteSpace=wrap;html=1;fontSize=14;" parent="NJt9awCA1hXl86DGp1sZ-11" vertex="1">
          <mxGeometry x="94" y="4500" width="614" height="1350" as="geometry" />
        </mxCell>
        <mxCell id="wAlXlOLfTSp1UA3SI0B5-58" value="" style="rounded=0;whiteSpace=wrap;html=1;" parent="NJt9awCA1hXl86DGp1sZ-11" vertex="1">
          <mxGeometry x="129.75" y="4520" width="540.25" height="400" as="geometry" />
        </mxCell>
        <mxCell id="bfiqpeBWppTH1w2yS7td-11" value="拆单" style="shape=umlFrame;whiteSpace=wrap;html=1;rounded=1;glass=0;sketch=0;fontSize=16;width=80;height=30;fillColor=#FFFFFF;" parent="NJt9awCA1hXl86DGp1sZ-11" vertex="1">
          <mxGeometry x="844" y="4240" width="526" height="340" as="geometry" />
        </mxCell>
        <mxCell id="NJt9awCA1hXl86DGp1sZ-225" value="" style="rounded=0;whiteSpace=wrap;html=1;fontSize=14;" parent="NJt9awCA1hXl86DGp1sZ-11" vertex="1">
          <mxGeometry x="86" y="3770" width="614" height="650" as="geometry" />
        </mxCell>
        <mxCell id="NJt9awCA1hXl86DGp1sZ-229" value="" style="rounded=0;whiteSpace=wrap;html=1;fontSize=14;" parent="NJt9awCA1hXl86DGp1sZ-11" vertex="1">
          <mxGeometry x="113" y="3830" width="560" height="180" as="geometry" />
        </mxCell>
        <mxCell id="NJt9awCA1hXl86DGp1sZ-198" value="" style="rounded=0;whiteSpace=wrap;html=1;fontSize=14;" parent="NJt9awCA1hXl86DGp1sZ-11" vertex="1">
          <mxGeometry x="90" y="3210" width="590" height="470" as="geometry" />
        </mxCell>
        <mxCell id="NJt9awCA1hXl86DGp1sZ-199" value="" style="rounded=0;whiteSpace=wrap;html=1;fontSize=14;" parent="NJt9awCA1hXl86DGp1sZ-11" vertex="1">
          <mxGeometry x="106" y="3280" width="548" height="310" as="geometry" />
        </mxCell>
        <mxCell id="NJt9awCA1hXl86DGp1sZ-146" value="" style="rounded=0;whiteSpace=wrap;html=1;fontSize=14;" parent="NJt9awCA1hXl86DGp1sZ-11" vertex="1">
          <mxGeometry x="94" y="2110" width="590" height="580" as="geometry" />
        </mxCell>
        <mxCell id="NJt9awCA1hXl86DGp1sZ-157" value="" style="rounded=0;whiteSpace=wrap;html=1;fontSize=14;" parent="NJt9awCA1hXl86DGp1sZ-11" vertex="1">
          <mxGeometry x="107" y="2370" width="548" height="240" as="geometry" />
        </mxCell>
        <mxCell id="NJt9awCA1hXl86DGp1sZ-55" value="" style="rounded=0;whiteSpace=wrap;html=1;fontSize=14;" parent="NJt9awCA1hXl86DGp1sZ-11" vertex="1">
          <mxGeometry x="73" y="720" width="590" height="550" as="geometry" />
        </mxCell>
        <mxCell id="NJt9awCA1hXl86DGp1sZ-12" value="" style="rounded=0;whiteSpace=wrap;html=1;fontSize=14;" parent="NJt9awCA1hXl86DGp1sZ-11" vertex="1">
          <mxGeometry x="70" y="240" width="590" height="440" as="geometry" />
        </mxCell>
        <mxCell id="NJt9awCA1hXl86DGp1sZ-13" value="产品线" style="text;html=1;align=center;verticalAlign=middle;resizable=0;points=[];autosize=1;fontSize=14;" parent="NJt9awCA1hXl86DGp1sZ-11" vertex="1">
          <mxGeometry x="100" y="85" width="60" height="20" as="geometry" />
        </mxCell>
        <mxCell id="NJt9awCA1hXl86DGp1sZ-14" value="" style="rounded=0;whiteSpace=wrap;html=1;fontSize=14;" parent="NJt9awCA1hXl86DGp1sZ-11" vertex="1">
          <mxGeometry x="190" y="105" width="70" height="25" as="geometry" />
        </mxCell>
        <mxCell id="NJt9awCA1hXl86DGp1sZ-15" value="" style="rounded=0;whiteSpace=wrap;html=1;fontSize=14;" parent="NJt9awCA1hXl86DGp1sZ-11" vertex="1">
          <mxGeometry x="290" y="85" width="160" height="75" as="geometry" />
        </mxCell>
        <mxCell id="NJt9awCA1hXl86DGp1sZ-16" value="c" style="rounded=1;whiteSpace=wrap;html=1;fontSize=14;" parent="NJt9awCA1hXl86DGp1sZ-11" vertex="1">
          <mxGeometry x="470" y="85" width="70" height="30" as="geometry" />
        </mxCell>
        <mxCell id="NJt9awCA1hXl86DGp1sZ-18" value="产品线" style="text;html=1;align=center;verticalAlign=middle;resizable=0;points=[];autosize=1;fontSize=14;" parent="NJt9awCA1hXl86DGp1sZ-11" vertex="1">
          <mxGeometry x="120" y="292" width="60" height="20" as="geometry" />
        </mxCell>
        <mxCell id="NJt9awCA1hXl86DGp1sZ-19" value="产品小类" style="text;html=1;align=center;verticalAlign=middle;resizable=0;points=[];autosize=1;fontSize=14;" parent="NJt9awCA1hXl86DGp1sZ-11" vertex="1">
          <mxGeometry x="280" y="292" width="70" height="20" as="geometry" />
        </mxCell>
        <mxCell id="NJt9awCA1hXl86DGp1sZ-20" value="需求来源" style="text;html=1;align=center;verticalAlign=middle;resizable=0;points=[];autosize=1;fontSize=14;" parent="NJt9awCA1hXl86DGp1sZ-11" vertex="1">
          <mxGeometry x="450" y="292" width="70" height="20" as="geometry" />
        </mxCell>
        <mxCell id="NJt9awCA1hXl86DGp1sZ-21" value="工单编号" style="text;html=1;align=center;verticalAlign=middle;resizable=0;points=[];autosize=1;fontSize=14;" parent="NJt9awCA1hXl86DGp1sZ-11" vertex="1">
          <mxGeometry x="110" y="325" width="70" height="20" as="geometry" />
        </mxCell>
        <mxCell id="NJt9awCA1hXl86DGp1sZ-22" value="传票号" style="text;html=1;align=center;verticalAlign=middle;resizable=0;points=[];autosize=1;fontSize=14;" parent="NJt9awCA1hXl86DGp1sZ-11" vertex="1">
          <mxGeometry x="290" y="325" width="60" height="20" as="geometry" />
        </mxCell>
        <mxCell id="NJt9awCA1hXl86DGp1sZ-25" value="&lt;span&gt;Select&lt;/span&gt;" style="rounded=0;whiteSpace=wrap;html=1;fontSize=14;" parent="NJt9awCA1hXl86DGp1sZ-11" vertex="1">
          <mxGeometry x="185" y="290" width="70" height="25" as="geometry" />
        </mxCell>
        <mxCell id="NJt9awCA1hXl86DGp1sZ-26" value="&lt;span&gt;Select&lt;/span&gt;" style="rounded=0;whiteSpace=wrap;html=1;fontSize=14;" parent="NJt9awCA1hXl86DGp1sZ-11" vertex="1">
          <mxGeometry x="356" y="290" width="70" height="25" as="geometry" />
        </mxCell>
        <mxCell id="NJt9awCA1hXl86DGp1sZ-27" value="&lt;span&gt;Select&lt;/span&gt;" style="rounded=0;whiteSpace=wrap;html=1;fontSize=14;" parent="NJt9awCA1hXl86DGp1sZ-11" vertex="1">
          <mxGeometry x="526" y="287" width="70" height="25" as="geometry" />
        </mxCell>
        <mxCell id="NJt9awCA1hXl86DGp1sZ-28" value="（）" style="rounded=0;whiteSpace=wrap;html=1;fontSize=14;strokeColor=#666666;fontColor=#333333;fillColor=#D6D6D6;" parent="NJt9awCA1hXl86DGp1sZ-11" vertex="1">
          <mxGeometry x="185" y="324" width="70" height="25" as="geometry" />
        </mxCell>
        <mxCell id="NJt9awCA1hXl86DGp1sZ-30" value="Input" style="rounded=0;whiteSpace=wrap;html=1;fontSize=14;" parent="NJt9awCA1hXl86DGp1sZ-11" vertex="1">
          <mxGeometry x="356" y="325" width="70" height="25" as="geometry" />
        </mxCell>
        <mxCell id="NJt9awCA1hXl86DGp1sZ-31" value="型号" style="text;html=1;align=center;verticalAlign=middle;resizable=0;points=[];autosize=1;fontSize=14;" parent="NJt9awCA1hXl86DGp1sZ-11" vertex="1">
          <mxGeometry x="473" y="326" width="40" height="20" as="geometry" />
        </mxCell>
        <mxCell id="NJt9awCA1hXl86DGp1sZ-32" value="Select" style="rounded=0;whiteSpace=wrap;html=1;fontSize=14;" parent="NJt9awCA1hXl86DGp1sZ-11" vertex="1">
          <mxGeometry x="526" y="325" width="70" height="25" as="geometry" />
        </mxCell>
        <mxCell id="NJt9awCA1hXl86DGp1sZ-33" value="数量" style="text;html=1;align=center;verticalAlign=middle;resizable=0;points=[];autosize=1;fontSize=14;" parent="NJt9awCA1hXl86DGp1sZ-11" vertex="1">
          <mxGeometry x="132" y="361" width="40" height="20" as="geometry" />
        </mxCell>
        <mxCell id="NJt9awCA1hXl86DGp1sZ-34" value="Number" style="rounded=0;whiteSpace=wrap;html=1;fontSize=14;" parent="NJt9awCA1hXl86DGp1sZ-11" vertex="1">
          <mxGeometry x="185" y="360" width="70" height="25" as="geometry" />
        </mxCell>
        <mxCell id="NJt9awCA1hXl86DGp1sZ-35" value="特殊说明" style="text;html=1;align=center;verticalAlign=middle;resizable=0;points=[];autosize=1;fontSize=14;" parent="NJt9awCA1hXl86DGp1sZ-11" vertex="1">
          <mxGeometry x="100" y="400" width="70" height="20" as="geometry" />
        </mxCell>
        <mxCell id="NJt9awCA1hXl86DGp1sZ-37" value="Text" style="rounded=0;whiteSpace=wrap;html=1;fontSize=14;" parent="NJt9awCA1hXl86DGp1sZ-11" vertex="1">
          <mxGeometry x="183" y="400" width="407" height="80" as="geometry" />
        </mxCell>
        <mxCell id="NJt9awCA1hXl86DGp1sZ-38" value="回退" style="rounded=1;whiteSpace=wrap;html=1;fontSize=14;" parent="NJt9awCA1hXl86DGp1sZ-11" vertex="1">
          <mxGeometry x="416" y="1230" width="70" height="30" as="geometry" />
        </mxCell>
        <mxCell id="NJt9awCA1hXl86DGp1sZ-40" value="通过" style="rounded=1;whiteSpace=wrap;html=1;fontSize=14;" parent="NJt9awCA1hXl86DGp1sZ-11" vertex="1">
          <mxGeometry x="500" y="1230" width="70" height="30" as="geometry" />
        </mxCell>
        <mxCell id="NJt9awCA1hXl86DGp1sZ-41" value="1.创建工单" style="text;html=1;align=center;verticalAlign=middle;resizable=0;points=[];autosize=1;fontSize=20;" parent="NJt9awCA1hXl86DGp1sZ-11" vertex="1">
          <mxGeometry x="70" y="210" width="110" height="30" as="geometry" />
        </mxCell>
        <mxCell id="NJt9awCA1hXl86DGp1sZ-42" value="需求文件" style="text;html=1;align=center;verticalAlign=middle;resizable=0;points=[];autosize=1;fontSize=14;" parent="NJt9awCA1hXl86DGp1sZ-11" vertex="1">
          <mxGeometry x="95" y="500" width="70" height="20" as="geometry" />
        </mxCell>
        <mxCell id="NJt9awCA1hXl86DGp1sZ-43" value="点击上传" style="rounded=1;whiteSpace=wrap;html=1;fontSize=14;" parent="NJt9awCA1hXl86DGp1sZ-11" vertex="1">
          <mxGeometry x="183" y="495" width="70" height="30" as="geometry" />
        </mxCell>
        <mxCell id="NJt9awCA1hXl86DGp1sZ-44" value="List" style="rounded=0;whiteSpace=wrap;html=1;fontSize=14;" parent="NJt9awCA1hXl86DGp1sZ-11" vertex="1">
          <mxGeometry x="183" y="540" width="417" height="70" as="geometry" />
        </mxCell>
        <mxCell id="NJt9awCA1hXl86DGp1sZ-45" value="已上传附件" style="text;html=1;align=center;verticalAlign=middle;resizable=0;points=[];autosize=1;fontSize=14;" parent="NJt9awCA1hXl86DGp1sZ-11" vertex="1">
          <mxGeometry x="75" y="540" width="90" height="20" as="geometry" />
        </mxCell>
        <mxCell id="NJt9awCA1hXl86DGp1sZ-47" value="需求文档.doc&amp;nbsp;" style="rounded=0;whiteSpace=wrap;html=1;fontSize=14;" parent="NJt9awCA1hXl86DGp1sZ-11" vertex="1">
          <mxGeometry x="190" y="550" width="120" height="30" as="geometry" />
        </mxCell>
        <mxCell id="NJt9awCA1hXl86DGp1sZ-48" value="" style="shape=sumEllipse;perimeter=ellipsePerimeter;whiteSpace=wrap;html=1;backgroundOutline=1;rounded=1;glass=0;sketch=0;fontSize=20;" parent="NJt9awCA1hXl86DGp1sZ-11" vertex="1">
          <mxGeometry x="290" y="557" width="16" height="16" as="geometry" />
        </mxCell>
        <mxCell id="NJt9awCA1hXl86DGp1sZ-49" value="" style="shape=sumEllipse;perimeter=ellipsePerimeter;whiteSpace=wrap;html=1;backgroundOutline=1;rounded=1;glass=0;sketch=0;fontSize=20;" parent="NJt9awCA1hXl86DGp1sZ-11" vertex="1">
          <mxGeometry x="70" y="130" width="16" height="16" as="geometry" />
        </mxCell>
        <mxCell id="NJt9awCA1hXl86DGp1sZ-51" value="创建人" style="text;html=1;align=right;verticalAlign=middle;resizable=0;points=[];autosize=1;fontSize=14;" parent="NJt9awCA1hXl86DGp1sZ-11" vertex="1">
          <mxGeometry x="95" y="640" width="60" height="20" as="geometry" />
        </mxCell>
        <mxCell id="NJt9awCA1hXl86DGp1sZ-52" value="张林 2020-09-22" style="text;html=1;align=right;verticalAlign=middle;resizable=0;points=[];autosize=1;fontSize=14;" parent="NJt9awCA1hXl86DGp1sZ-11" vertex="1">
          <mxGeometry x="162" y="640" width="120" height="20" as="geometry" />
        </mxCell>
        <mxCell id="NJt9awCA1hXl86DGp1sZ-54" value="2.工单审核" style="text;html=1;align=center;verticalAlign=middle;resizable=0;points=[];autosize=1;fontSize=20;" parent="NJt9awCA1hXl86DGp1sZ-11" vertex="1">
          <mxGeometry x="73" y="690" width="110" height="30" as="geometry" />
        </mxCell>
        <mxCell id="NJt9awCA1hXl86DGp1sZ-56" value="1.创建工单的内容" style="rounded=0;whiteSpace=wrap;html=1;fontSize=14;" parent="NJt9awCA1hXl86DGp1sZ-11" vertex="1">
          <mxGeometry x="130" y="770" width="500" height="240" as="geometry" />
        </mxCell>
        <mxCell id="NJt9awCA1hXl86DGp1sZ-69" value="" style="rounded=0;whiteSpace=wrap;html=1;fontSize=14;" parent="NJt9awCA1hXl86DGp1sZ-11" vertex="1">
          <mxGeometry x="130" y="1030" width="500" height="170" as="geometry" />
        </mxCell>
        <mxCell id="NJt9awCA1hXl86DGp1sZ-70" value="实施单位" style="text;html=1;align=center;verticalAlign=middle;resizable=0;points=[];autosize=1;fontSize=14;" parent="NJt9awCA1hXl86DGp1sZ-11" vertex="1">
          <mxGeometry x="145" y="1069" width="70" height="20" as="geometry" />
        </mxCell>
        <mxCell id="NJt9awCA1hXl86DGp1sZ-71" value="Select" style="rounded=0;whiteSpace=wrap;html=1;fontSize=14;" parent="NJt9awCA1hXl86DGp1sZ-11" vertex="1">
          <mxGeometry x="215" y="1067" width="70" height="25" as="geometry" />
        </mxCell>
        <mxCell id="NJt9awCA1hXl86DGp1sZ-72" value="优先级" style="text;html=1;align=center;verticalAlign=middle;resizable=0;points=[];autosize=1;fontSize=14;" parent="NJt9awCA1hXl86DGp1sZ-11" vertex="1">
          <mxGeometry x="300" y="1068" width="60" height="20" as="geometry" />
        </mxCell>
        <mxCell id="NJt9awCA1hXl86DGp1sZ-73" value="Select" style="rounded=0;whiteSpace=wrap;html=1;fontSize=14;" parent="NJt9awCA1hXl86DGp1sZ-11" vertex="1">
          <mxGeometry x="356" y="1066" width="70" height="25" as="geometry" />
        </mxCell>
        <mxCell id="NJt9awCA1hXl86DGp1sZ-74" value="要求完成时间" style="text;html=1;align=center;verticalAlign=middle;resizable=0;points=[];autosize=1;fontSize=14;" parent="NJt9awCA1hXl86DGp1sZ-11" vertex="1">
          <mxGeometry x="437" y="1067" width="100" height="20" as="geometry" />
        </mxCell>
        <mxCell id="NJt9awCA1hXl86DGp1sZ-75" value="Date" style="rounded=0;whiteSpace=wrap;html=1;fontSize=14;" parent="NJt9awCA1hXl86DGp1sZ-11" vertex="1">
          <mxGeometry x="540" y="1065" width="70" height="25" as="geometry" />
        </mxCell>
        <mxCell id="NJt9awCA1hXl86DGp1sZ-80" value="备注" style="text;html=1;align=center;verticalAlign=middle;resizable=0;points=[];autosize=1;fontSize=14;" parent="NJt9awCA1hXl86DGp1sZ-11" vertex="1">
          <mxGeometry x="170" y="1110.5" width="40" height="20" as="geometry" />
        </mxCell>
        <mxCell id="NJt9awCA1hXl86DGp1sZ-81" value="Text" style="rounded=0;whiteSpace=wrap;html=1;fontSize=14;" parent="NJt9awCA1hXl86DGp1sZ-11" vertex="1">
          <mxGeometry x="215" y="1110" width="395" height="25" as="geometry" />
        </mxCell>
        <mxCell id="NJt9awCA1hXl86DGp1sZ-82" value="审核时间" style="text;html=1;align=center;verticalAlign=middle;resizable=0;points=[];autosize=1;fontSize=14;" parent="NJt9awCA1hXl86DGp1sZ-11" vertex="1">
          <mxGeometry x="145" y="1149" width="70" height="20" as="geometry" />
        </mxCell>
        <mxCell id="NJt9awCA1hXl86DGp1sZ-83" value="2020-09-24" style="text;html=1;align=center;verticalAlign=middle;resizable=0;points=[];autosize=1;fontSize=14;" parent="NJt9awCA1hXl86DGp1sZ-11" vertex="1">
          <mxGeometry x="210" y="1149" width="90" height="20" as="geometry" />
        </mxCell>
        <mxCell id="NJt9awCA1hXl86DGp1sZ-98" value="3.新品试制、产品定制：制作实施" style="text;html=1;align=center;verticalAlign=middle;resizable=0;points=[];autosize=1;fontSize=20;" parent="NJt9awCA1hXl86DGp1sZ-11" vertex="1">
          <mxGeometry x="75" y="1360" width="310" height="30" as="geometry" />
        </mxCell>
        <mxCell id="NJt9awCA1hXl86DGp1sZ-99" value="" style="rounded=0;whiteSpace=wrap;html=1;fontSize=14;" parent="NJt9awCA1hXl86DGp1sZ-11" vertex="1">
          <mxGeometry x="82" y="1410" width="590" height="600" as="geometry" />
        </mxCell>
        <mxCell id="NJt9awCA1hXl86DGp1sZ-100" value="" style="rounded=0;whiteSpace=wrap;html=1;fontSize=14;" parent="NJt9awCA1hXl86DGp1sZ-11" vertex="1">
          <mxGeometry x="100" y="1670" width="554" height="280" as="geometry" />
        </mxCell>
        <mxCell id="NJt9awCA1hXl86DGp1sZ-102" value="首检确认人" style="text;html=1;align=center;verticalAlign=middle;resizable=0;points=[];autosize=1;fontSize=14;" parent="NJt9awCA1hXl86DGp1sZ-11" vertex="1">
          <mxGeometry x="133.25" y="1702" width="90" height="20" as="geometry" />
        </mxCell>
        <mxCell id="NJt9awCA1hXl86DGp1sZ-103" value="Input" style="rounded=0;whiteSpace=wrap;html=1;fontSize=14;" parent="NJt9awCA1hXl86DGp1sZ-11" vertex="1">
          <mxGeometry x="221.5" y="1703" width="70" height="25" as="geometry" />
        </mxCell>
        <mxCell id="NJt9awCA1hXl86DGp1sZ-104" value="工时" style="text;html=1;align=center;verticalAlign=middle;resizable=0;points=[];autosize=1;fontSize=14;" parent="NJt9awCA1hXl86DGp1sZ-11" vertex="1">
          <mxGeometry x="299" y="1702" width="40" height="20" as="geometry" />
        </mxCell>
        <mxCell id="NJt9awCA1hXl86DGp1sZ-105" value="Number" style="rounded=0;whiteSpace=wrap;html=1;fontSize=14;" parent="NJt9awCA1hXl86DGp1sZ-11" vertex="1">
          <mxGeometry x="345" y="1700" width="70" height="25" as="geometry" />
        </mxCell>
        <mxCell id="NJt9awCA1hXl86DGp1sZ-108" value="文件导入" style="rounded=1;whiteSpace=wrap;html=1;fontSize=14;" parent="NJt9awCA1hXl86DGp1sZ-11" vertex="1">
          <mxGeometry x="223.25" y="1752" width="75" height="30" as="geometry" />
        </mxCell>
        <mxCell id="NJt9awCA1hXl86DGp1sZ-116" value="实施记录" style="text;html=1;align=center;verticalAlign=middle;resizable=0;points=[];autosize=1;fontSize=14;" parent="NJt9awCA1hXl86DGp1sZ-11" vertex="1">
          <mxGeometry x="147" y="1804" width="70" height="20" as="geometry" />
        </mxCell>
        <mxCell id="NJt9awCA1hXl86DGp1sZ-117" value="Text" style="rounded=0;whiteSpace=wrap;html=1;fontSize=14;" parent="NJt9awCA1hXl86DGp1sZ-11" vertex="1">
          <mxGeometry x="222.25" y="1800" width="395" height="25" as="geometry" />
        </mxCell>
        <mxCell id="NJt9awCA1hXl86DGp1sZ-118" value="取消" style="rounded=1;whiteSpace=wrap;html=1;fontSize=14;" parent="NJt9awCA1hXl86DGp1sZ-11" vertex="1">
          <mxGeometry x="424.5" y="1970" width="70" height="30" as="geometry" />
        </mxCell>
        <mxCell id="NJt9awCA1hXl86DGp1sZ-120" value="下一个实时单位" style="text;html=1;align=center;verticalAlign=middle;resizable=0;points=[];autosize=1;fontSize=14;" parent="NJt9awCA1hXl86DGp1sZ-11" vertex="1">
          <mxGeometry x="107" y="1839.5" width="110" height="20" as="geometry" />
        </mxCell>
        <mxCell id="NJt9awCA1hXl86DGp1sZ-121" value="Select" style="rounded=0;whiteSpace=wrap;html=1;fontSize=14;" parent="NJt9awCA1hXl86DGp1sZ-11" vertex="1">
          <mxGeometry x="222.25" y="1838" width="395" height="25" as="geometry" />
        </mxCell>
        <mxCell id="NJt9awCA1hXl86DGp1sZ-122" value="维修记录处理" style="text;html=1;align=center;verticalAlign=middle;resizable=0;points=[];autosize=1;fontSize=14;" parent="NJt9awCA1hXl86DGp1sZ-11" vertex="1">
          <mxGeometry x="119.25" y="1751" width="100" height="20" as="geometry" />
        </mxCell>
        <mxCell id="NJt9awCA1hXl86DGp1sZ-126" value="实施完成时间" style="text;html=1;align=center;verticalAlign=middle;resizable=0;points=[];autosize=1;fontSize=14;" parent="NJt9awCA1hXl86DGp1sZ-11" vertex="1">
          <mxGeometry x="115.5" y="1897" width="100" height="20" as="geometry" />
        </mxCell>
        <mxCell id="NJt9awCA1hXl86DGp1sZ-127" value="2020-09-28" style="text;html=1;align=center;verticalAlign=middle;resizable=0;points=[];autosize=1;fontSize=14;" parent="NJt9awCA1hXl86DGp1sZ-11" vertex="1">
          <mxGeometry x="226.25" y="1898" width="90" height="20" as="geometry" />
        </mxCell>
        <mxCell id="NJt9awCA1hXl86DGp1sZ-134" value="1" style="rounded=0;whiteSpace=wrap;html=1;fontSize=14;" parent="NJt9awCA1hXl86DGp1sZ-11" vertex="1">
          <mxGeometry x="100" y="1430" width="551" height="90" as="geometry" />
        </mxCell>
        <mxCell id="NJt9awCA1hXl86DGp1sZ-145" value="4.品质抽检" style="text;html=1;align=center;verticalAlign=middle;resizable=0;points=[];autosize=1;fontSize=20;" parent="NJt9awCA1hXl86DGp1sZ-11" vertex="1">
          <mxGeometry x="80" y="2040" width="110" height="30" as="geometry" />
        </mxCell>
        <mxCell id="NJt9awCA1hXl86DGp1sZ-147" value="质检员" style="text;html=1;align=center;verticalAlign=middle;resizable=0;points=[];autosize=1;fontSize=14;" parent="NJt9awCA1hXl86DGp1sZ-11" vertex="1">
          <mxGeometry x="162" y="2385" width="60" height="20" as="geometry" />
        </mxCell>
        <mxCell id="NJt9awCA1hXl86DGp1sZ-148" value="Input" style="rounded=0;whiteSpace=wrap;html=1;fontSize=14;" parent="NJt9awCA1hXl86DGp1sZ-11" vertex="1">
          <mxGeometry x="223.25" y="2385" width="63.5" height="25" as="geometry" />
        </mxCell>
        <mxCell id="NJt9awCA1hXl86DGp1sZ-149" value="工时" style="text;html=1;align=center;verticalAlign=middle;resizable=0;points=[];autosize=1;fontSize=14;" parent="NJt9awCA1hXl86DGp1sZ-11" vertex="1">
          <mxGeometry x="312" y="2389.5" width="40" height="20" as="geometry" />
        </mxCell>
        <mxCell id="NJt9awCA1hXl86DGp1sZ-150" value="Number" style="rounded=0;whiteSpace=wrap;html=1;fontSize=14;" parent="NJt9awCA1hXl86DGp1sZ-11" vertex="1">
          <mxGeometry x="358" y="2387.5" width="70" height="25" as="geometry" />
        </mxCell>
        <mxCell id="NJt9awCA1hXl86DGp1sZ-151" value="抽检记录" style="text;html=1;align=center;verticalAlign=middle;resizable=0;points=[];autosize=1;fontSize=14;" parent="NJt9awCA1hXl86DGp1sZ-11" vertex="1">
          <mxGeometry x="151" y="2440" width="70" height="20" as="geometry" />
        </mxCell>
        <mxCell id="NJt9awCA1hXl86DGp1sZ-152" value="Text" style="rounded=0;whiteSpace=wrap;html=1;fontSize=14;" parent="NJt9awCA1hXl86DGp1sZ-11" vertex="1">
          <mxGeometry x="223.25" y="2440" width="395" height="80" as="geometry" />
        </mxCell>
        <mxCell id="NJt9awCA1hXl86DGp1sZ-153" value="指派下一道工序" style="text;html=1;align=center;verticalAlign=middle;resizable=0;points=[];autosize=1;fontSize=14;" parent="NJt9awCA1hXl86DGp1sZ-11" vertex="1">
          <mxGeometry x="110" y="2540" width="110" height="20" as="geometry" />
        </mxCell>
        <mxCell id="NJt9awCA1hXl86DGp1sZ-154" value="Select" style="rounded=0;whiteSpace=wrap;html=1;fontSize=14;" parent="NJt9awCA1hXl86DGp1sZ-11" vertex="1">
          <mxGeometry x="223.25" y="2540" width="395" height="25" as="geometry" />
        </mxCell>
        <mxCell id="NJt9awCA1hXl86DGp1sZ-158" value="1" style="rounded=0;whiteSpace=wrap;html=1;fontSize=14;" parent="NJt9awCA1hXl86DGp1sZ-11" vertex="1">
          <mxGeometry x="111" y="2140" width="548" height="60" as="geometry" />
        </mxCell>
        <mxCell id="NJt9awCA1hXl86DGp1sZ-163" value="不同实施单位实施记录" style="shape=umlFrame;whiteSpace=wrap;html=1;rounded=1;glass=0;sketch=0;fontSize=16;width=30;height=210;fillColor=#FFFFFF;" parent="NJt9awCA1hXl86DGp1sZ-11" vertex="1">
          <mxGeometry x="784" y="3370" width="530" height="370" as="geometry" />
        </mxCell>
        <mxCell id="NJt9awCA1hXl86DGp1sZ-165" value="暂存" style="rounded=1;whiteSpace=wrap;html=1;fontSize=14;" parent="NJt9awCA1hXl86DGp1sZ-11" vertex="1">
          <mxGeometry x="439" y="2650" width="70" height="30" as="geometry" />
        </mxCell>
        <mxCell id="NJt9awCA1hXl86DGp1sZ-182" value="&lt;table cellpadding=&quot;4&quot; cellspacing=&quot;0&quot; border=&quot;1&quot; style=&quot;font-size: 1em ; width: 100% ; height: 100%&quot;&gt;&lt;tbody&gt;&lt;tr&gt;&lt;th&gt;工单编号&lt;/th&gt;&lt;td&gt;&lt;b&gt;产品线&lt;/b&gt;&lt;/td&gt;&lt;th&gt;优先级&lt;/th&gt;&lt;td&gt;&lt;b&gt;数量&lt;/b&gt;&lt;/td&gt;&lt;td&gt;&lt;b&gt;工时&lt;/b&gt;&lt;/td&gt;&lt;td&gt;&lt;b&gt;实施单位&lt;/b&gt;&lt;/td&gt;&lt;td&gt;&lt;b&gt;备注&lt;/b&gt;&lt;/td&gt;&lt;/tr&gt;&lt;tr&gt;&lt;td&gt;xxx111&lt;/td&gt;&lt;td&gt;&lt;/td&gt;&lt;td&gt;高&lt;/td&gt;&lt;td&gt;&lt;br&gt;&lt;/td&gt;&lt;td&gt;&lt;br&gt;&lt;/td&gt;&lt;td&gt;&lt;br&gt;&lt;/td&gt;&lt;td&gt;&lt;br&gt;&lt;/td&gt;&lt;/tr&gt;&lt;tr&gt;&lt;td&gt;xxx222&lt;/td&gt;&lt;td&gt;&lt;br&gt;&lt;/td&gt;&lt;td&gt;中&lt;/td&gt;&lt;td&gt;&lt;br&gt;&lt;/td&gt;&lt;td&gt;&lt;br&gt;&lt;/td&gt;&lt;td&gt;&lt;br&gt;&lt;/td&gt;&lt;td&gt;&lt;br&gt;&lt;/td&gt;&lt;/tr&gt;&lt;tr&gt;&lt;td&gt;xxx333&lt;/td&gt;&lt;td&gt;&lt;br&gt;&lt;/td&gt;&lt;td&gt;&lt;br&gt;&lt;/td&gt;&lt;td&gt;&lt;br&gt;&lt;/td&gt;&lt;td&gt;&lt;br&gt;&lt;/td&gt;&lt;td&gt;&lt;br&gt;&lt;/td&gt;&lt;td&gt;&lt;br&gt;&lt;/td&gt;&lt;/tr&gt;&lt;tr&gt;&lt;td&gt;xxx444&lt;/td&gt;&lt;td&gt;&lt;br&gt;&lt;/td&gt;&lt;td&gt;&lt;br&gt;&lt;/td&gt;&lt;td&gt;&lt;br&gt;&lt;/td&gt;&lt;td&gt;&lt;br&gt;&lt;/td&gt;&lt;td&gt;&lt;br&gt;&lt;/td&gt;&lt;td&gt;&lt;br&gt;&lt;/td&gt;&lt;/tr&gt;&lt;/tbody&gt;&lt;/table&gt; " style="verticalAlign=top;align=left;overflow=fill;fontSize=12;fontFamily=Helvetica;html=1;strokeColor=none;fontColor=#000000;" parent="NJt9awCA1hXl86DGp1sZ-11" vertex="1">
          <mxGeometry x="844" y="3487.5" width="440" height="220" as="geometry" />
        </mxCell>
        <mxCell id="NJt9awCA1hXl86DGp1sZ-183" value="优先级" style="text;html=1;align=center;verticalAlign=middle;resizable=0;points=[];autosize=1;fontSize=14;" parent="NJt9awCA1hXl86DGp1sZ-11" vertex="1">
          <mxGeometry x="854" y="3437" width="60" height="20" as="geometry" />
        </mxCell>
        <mxCell id="NJt9awCA1hXl86DGp1sZ-184" value="Select" style="rounded=0;whiteSpace=wrap;html=1;fontSize=14;" parent="NJt9awCA1hXl86DGp1sZ-11" vertex="1">
          <mxGeometry x="910" y="3435" width="70" height="25" as="geometry" />
        </mxCell>
        <mxCell id="NJt9awCA1hXl86DGp1sZ-185" value="实施单位" style="text;html=1;align=center;verticalAlign=middle;resizable=0;points=[];autosize=1;fontSize=14;" parent="NJt9awCA1hXl86DGp1sZ-11" vertex="1">
          <mxGeometry x="991.5" y="3437" width="70" height="20" as="geometry" />
        </mxCell>
        <mxCell id="NJt9awCA1hXl86DGp1sZ-186" value="Select" style="rounded=0;whiteSpace=wrap;html=1;fontSize=14;" parent="NJt9awCA1hXl86DGp1sZ-11" vertex="1">
          <mxGeometry x="1061.5" y="3437" width="70" height="25" as="geometry" />
        </mxCell>
        <mxCell id="NJt9awCA1hXl86DGp1sZ-187" value="抽检完成" style="rounded=1;whiteSpace=wrap;html=1;fontSize=14;" parent="NJt9awCA1hXl86DGp1sZ-11" vertex="1">
          <mxGeometry x="526" y="2650" width="70" height="30" as="geometry" />
        </mxCell>
        <mxCell id="NJt9awCA1hXl86DGp1sZ-188" value="5.入库" style="text;html=1;align=center;verticalAlign=middle;resizable=0;points=[];autosize=1;fontSize=20;" parent="NJt9awCA1hXl86DGp1sZ-11" vertex="1">
          <mxGeometry x="94" y="2710" width="70" height="30" as="geometry" />
        </mxCell>
        <mxCell id="NJt9awCA1hXl86DGp1sZ-189" value="" style="rounded=0;whiteSpace=wrap;html=1;fontSize=14;" parent="NJt9awCA1hXl86DGp1sZ-11" vertex="1">
          <mxGeometry x="80" y="2750" width="590" height="390" as="geometry" />
        </mxCell>
        <mxCell id="NJt9awCA1hXl86DGp1sZ-190" value="1.提单的基本信息" style="rounded=0;whiteSpace=wrap;html=1;fontSize=14;" parent="NJt9awCA1hXl86DGp1sZ-11" vertex="1">
          <mxGeometry x="101" y="2770" width="548" height="260" as="geometry" />
        </mxCell>
        <mxCell id="NJt9awCA1hXl86DGp1sZ-191" value="入库" style="rounded=1;whiteSpace=wrap;html=1;fontSize=14;" parent="NJt9awCA1hXl86DGp1sZ-11" vertex="1">
          <mxGeometry x="486" y="3080" width="70" height="30" as="geometry" />
        </mxCell>
        <mxCell id="NJt9awCA1hXl86DGp1sZ-192" value="取消" style="rounded=1;whiteSpace=wrap;html=1;fontSize=14;" parent="NJt9awCA1hXl86DGp1sZ-11" vertex="1">
          <mxGeometry x="403" y="3080" width="70" height="30" as="geometry" />
        </mxCell>
        <mxCell id="NJt9awCA1hXl86DGp1sZ-197" value="6.工单结算" style="text;html=1;align=center;verticalAlign=middle;resizable=0;points=[];autosize=1;fontSize=20;" parent="NJt9awCA1hXl86DGp1sZ-11" vertex="1">
          <mxGeometry x="100" y="3180" width="110" height="30" as="geometry" />
        </mxCell>
        <mxCell id="NJt9awCA1hXl86DGp1sZ-200" value="结算" style="rounded=1;whiteSpace=wrap;html=1;fontSize=14;" parent="NJt9awCA1hXl86DGp1sZ-11" vertex="1">
          <mxGeometry x="510" y="3640" width="70" height="30" as="geometry" />
        </mxCell>
        <mxCell id="NJt9awCA1hXl86DGp1sZ-201" value="取消" style="rounded=1;whiteSpace=wrap;html=1;fontSize=14;" parent="NJt9awCA1hXl86DGp1sZ-11" vertex="1">
          <mxGeometry x="416" y="3640" width="77" height="30" as="geometry" />
        </mxCell>
        <mxCell id="NJt9awCA1hXl86DGp1sZ-202" value="计价方式" style="text;html=1;align=center;verticalAlign=middle;resizable=0;points=[];autosize=1;fontSize=14;" parent="NJt9awCA1hXl86DGp1sZ-11" vertex="1">
          <mxGeometry x="141.63" y="3290" width="70" height="20" as="geometry" />
        </mxCell>
        <mxCell id="NJt9awCA1hXl86DGp1sZ-205" value="固定单价" style="shape=ellipse;fillColor=#eeeeee;strokeColor=#999999;gradientColor=#cccccc;html=1;align=left;spacingLeft=4;fontSize=17;fontColor=#666666;labelPosition=right;shadow=0;rounded=1;glass=0;dashed=1;dashPattern=1 2;sketch=0;" parent="NJt9awCA1hXl86DGp1sZ-11" vertex="1">
          <mxGeometry x="222" y="3290" width="15" height="15" as="geometry" />
        </mxCell>
        <mxCell id="NJt9awCA1hXl86DGp1sZ-207" value="实际工时" style="shape=ellipse;fillColor=#eeeeee;strokeColor=#999999;gradientColor=#cccccc;html=1;align=left;spacingLeft=4;fontSize=17;fontColor=#666666;labelPosition=right;shadow=0;rounded=1;glass=0;dashed=1;dashPattern=1 2;sketch=0;" parent="NJt9awCA1hXl86DGp1sZ-11" vertex="1">
          <mxGeometry x="324" y="3290" width="15" height="15" as="geometry" />
        </mxCell>
        <mxCell id="NJt9awCA1hXl86DGp1sZ-208" value="Number" style="rounded=0;whiteSpace=wrap;html=1;fontSize=14;" parent="NJt9awCA1hXl86DGp1sZ-11" vertex="1">
          <mxGeometry x="222" y="3320" width="63.5" height="25" as="geometry" />
        </mxCell>
        <mxCell id="NJt9awCA1hXl86DGp1sZ-209" value="维修费" style="text;html=1;align=center;verticalAlign=middle;resizable=0;points=[];autosize=1;fontSize=14;" parent="NJt9awCA1hXl86DGp1sZ-11" vertex="1">
          <mxGeometry x="145" y="3392.5" width="60" height="20" as="geometry" />
        </mxCell>
        <mxCell id="NJt9awCA1hXl86DGp1sZ-210" value="Number" style="rounded=0;whiteSpace=wrap;html=1;fontSize=14;" parent="NJt9awCA1hXl86DGp1sZ-11" vertex="1">
          <mxGeometry x="218.5" y="3392.5" width="63.5" height="25" as="geometry" />
        </mxCell>
        <mxCell id="NJt9awCA1hXl86DGp1sZ-211" value="附加费" style="text;html=1;align=center;verticalAlign=middle;resizable=0;points=[];autosize=1;fontSize=14;" parent="NJt9awCA1hXl86DGp1sZ-11" vertex="1">
          <mxGeometry x="324.5" y="3387.5" width="60" height="20" as="geometry" />
        </mxCell>
        <mxCell id="NJt9awCA1hXl86DGp1sZ-212" value="Number" style="rounded=0;whiteSpace=wrap;html=1;fontSize=14;" parent="NJt9awCA1hXl86DGp1sZ-11" vertex="1">
          <mxGeometry x="398" y="3387.5" width="63.5" height="25" as="geometry" />
        </mxCell>
        <mxCell id="NJt9awCA1hXl86DGp1sZ-213" value="量化合计" style="text;html=1;align=center;verticalAlign=middle;resizable=0;points=[];autosize=1;fontSize=14;" parent="NJt9awCA1hXl86DGp1sZ-11" vertex="1">
          <mxGeometry x="143" y="3440" width="70" height="20" as="geometry" />
        </mxCell>
        <mxCell id="NJt9awCA1hXl86DGp1sZ-214" value="直通率" style="text;html=1;align=center;verticalAlign=middle;resizable=0;points=[];autosize=1;fontSize=14;" parent="NJt9awCA1hXl86DGp1sZ-11" vertex="1">
          <mxGeometry x="333" y="3440" width="60" height="20" as="geometry" />
        </mxCell>
        <mxCell id="NJt9awCA1hXl86DGp1sZ-215" value="Number" style="rounded=0;whiteSpace=wrap;html=1;fontSize=14;strokeColor=#666666;fontColor=#333333;fillColor=#DBDBDB;" parent="NJt9awCA1hXl86DGp1sZ-11" vertex="1">
          <mxGeometry x="220.5" y="3435" width="64.5" height="25" as="geometry" />
        </mxCell>
        <mxCell id="NJt9awCA1hXl86DGp1sZ-216" value="Number" style="rounded=0;whiteSpace=wrap;html=1;fontSize=14;strokeColor=#666666;fontColor=#333333;fillColor=#DBDBDB;" parent="NJt9awCA1hXl86DGp1sZ-11" vertex="1">
          <mxGeometry x="397.75" y="3437.5" width="64.5" height="25" as="geometry" />
        </mxCell>
        <mxCell id="NJt9awCA1hXl86DGp1sZ-217" value="费用承担部门" style="text;html=1;align=center;verticalAlign=middle;resizable=0;points=[];autosize=1;fontSize=14;" parent="NJt9awCA1hXl86DGp1sZ-11" vertex="1">
          <mxGeometry x="106" y="3484.5" width="100" height="20" as="geometry" />
        </mxCell>
        <mxCell id="NJt9awCA1hXl86DGp1sZ-219" value="Select" style="rounded=0;whiteSpace=wrap;html=1;fontSize=14;" parent="NJt9awCA1hXl86DGp1sZ-11" vertex="1">
          <mxGeometry x="218.5" y="3482" width="63.5" height="25" as="geometry" />
        </mxCell>
        <mxCell id="NJt9awCA1hXl86DGp1sZ-220" value="备注：固定单价&amp;amp;实时工时 二选一" style="text;html=1;align=center;verticalAlign=middle;resizable=0;points=[];autosize=1;fontSize=14;" parent="NJt9awCA1hXl86DGp1sZ-11" vertex="1">
          <mxGeometry x="319.75" y="3320" width="220" height="20" as="geometry" />
        </mxCell>
        <mxCell id="NJt9awCA1hXl86DGp1sZ-221" value="计价金额" style="text;html=1;align=center;verticalAlign=middle;resizable=0;points=[];autosize=1;fontSize=14;" parent="NJt9awCA1hXl86DGp1sZ-11" vertex="1">
          <mxGeometry x="138" y="3322.5" width="70" height="20" as="geometry" />
        </mxCell>
        <mxCell id="NJt9awCA1hXl86DGp1sZ-222" value="备注" style="text;html=1;align=center;verticalAlign=middle;resizable=0;points=[];autosize=1;fontSize=14;" parent="NJt9awCA1hXl86DGp1sZ-11" vertex="1">
          <mxGeometry x="155" y="3520" width="40" height="20" as="geometry" />
        </mxCell>
        <mxCell id="NJt9awCA1hXl86DGp1sZ-223" value="Text" style="rounded=0;whiteSpace=wrap;html=1;fontSize=14;" parent="NJt9awCA1hXl86DGp1sZ-11" vertex="1">
          <mxGeometry x="218.5" y="3520" width="291.5" height="60" as="geometry" />
        </mxCell>
        <mxCell id="NJt9awCA1hXl86DGp1sZ-224" value="7.工单管理" style="text;html=1;align=center;verticalAlign=middle;resizable=0;points=[];autosize=1;fontSize=20;" parent="NJt9awCA1hXl86DGp1sZ-11" vertex="1">
          <mxGeometry x="97" y="3720" width="110" height="30" as="geometry" />
        </mxCell>
        <mxCell id="NJt9awCA1hXl86DGp1sZ-227" value="工单导出" style="rounded=1;whiteSpace=wrap;html=1;fontSize=14;" parent="NJt9awCA1hXl86DGp1sZ-11" vertex="1">
          <mxGeometry x="391.5" y="4100" width="77" height="30" as="geometry" />
        </mxCell>
        <mxCell id="NJt9awCA1hXl86DGp1sZ-228" value="确定" style="rounded=1;whiteSpace=wrap;html=1;fontSize=14;fillColor=#1ba1e2;strokeColor=#006EAF;fontColor=#ffffff;" parent="NJt9awCA1hXl86DGp1sZ-11" vertex="1">
          <mxGeometry x="1263" y="4530" width="77" height="30" as="geometry" />
        </mxCell>
        <mxCell id="wAlXlOLfTSp1UA3SI0B5-5" style="edgeStyle=orthogonalEdgeStyle;rounded=0;orthogonalLoop=1;jettySize=auto;html=1;exitX=0;exitY=0.5;exitDx=0;exitDy=0;curved=1;dashed=1;dashPattern=1 1;entryX=0;entryY=0.25;entryDx=0;entryDy=0;" parent="NJt9awCA1hXl86DGp1sZ-11" source="NJt9awCA1hXl86DGp1sZ-226" target="wAlXlOLfTSp1UA3SI0B5-3" edge="1">
          <mxGeometry relative="1" as="geometry">
            <Array as="points">
              <mxPoint x="30" y="4260" />
              <mxPoint x="30" y="4825" />
            </Array>
          </mxGeometry>
        </mxCell>
        <mxCell id="NJt9awCA1hXl86DGp1sZ-226" value="&lt;table cellpadding=&quot;4&quot; cellspacing=&quot;0&quot; border=&quot;1&quot; style=&quot;font-size: 1em ; width: 100% ; height: 100%&quot;&gt;&lt;tbody&gt;&lt;tr&gt;&lt;th&gt;工单编号&lt;/th&gt;&lt;td&gt;&lt;b&gt;产品线&lt;/b&gt;&lt;/td&gt;&lt;th&gt;优先级&lt;/th&gt;&lt;td&gt;&lt;b&gt;数量&lt;/b&gt;&lt;/td&gt;&lt;td&gt;&lt;b&gt;状态进度&lt;/b&gt;&lt;/td&gt;&lt;td&gt;&lt;b&gt;实施单位&lt;/b&gt;&lt;/td&gt;&lt;td&gt;&lt;b&gt;备注&lt;/b&gt;&lt;/td&gt;&lt;/tr&gt;&lt;tr&gt;&lt;td&gt;xxx111&lt;/td&gt;&lt;td&gt;&lt;/td&gt;&lt;td&gt;高&lt;/td&gt;&lt;td&gt;300&lt;/td&gt;&lt;td&gt;提单&lt;/td&gt;&lt;td&gt;&lt;br&gt;&lt;/td&gt;&lt;td&gt;&lt;u&gt;维修记录查询&lt;/u&gt; &lt;u&gt;维修记录导出&lt;/u&gt;&amp;nbsp;&lt;u&gt;维修模板导出&lt;/u&gt;&lt;/td&gt;&lt;/tr&gt;&lt;tr&gt;&lt;td&gt;xxx222&lt;/td&gt;&lt;td&gt;&lt;br&gt;&lt;/td&gt;&lt;td&gt;中&lt;/td&gt;&lt;td&gt;&lt;br&gt;&lt;/td&gt;&lt;td&gt;&lt;br&gt;&lt;/td&gt;&lt;td&gt;&lt;br&gt;&lt;/td&gt;&lt;td&gt;&lt;u&gt;详情&lt;/u&gt;&lt;/td&gt;&lt;/tr&gt;&lt;tr&gt;&lt;td&gt;xxx333&lt;/td&gt;&lt;td&gt;&lt;br&gt;&lt;/td&gt;&lt;td&gt;&lt;br&gt;&lt;/td&gt;&lt;td&gt;&lt;br&gt;&lt;/td&gt;&lt;td&gt;&lt;br&gt;&lt;/td&gt;&lt;td&gt;&lt;br&gt;&lt;/td&gt;&lt;td&gt;&lt;br&gt;&lt;/td&gt;&lt;/tr&gt;&lt;tr&gt;&lt;td&gt;xxx444&lt;/td&gt;&lt;td&gt;&lt;br&gt;&lt;/td&gt;&lt;td&gt;&lt;br&gt;&lt;/td&gt;&lt;td&gt;&lt;br&gt;&lt;/td&gt;&lt;td&gt;&lt;br&gt;&lt;/td&gt;&lt;td&gt;&lt;br&gt;&lt;/td&gt;&lt;td&gt;&lt;br&gt;&lt;/td&gt;&lt;/tr&gt;&lt;/tbody&gt;&lt;/table&gt; " style="verticalAlign=top;align=left;overflow=fill;fontSize=12;fontFamily=Helvetica;html=1;strokeColor=none;fontColor=#000000;" parent="NJt9awCA1hXl86DGp1sZ-11" vertex="1">
          <mxGeometry x="115.5" y="4150" width="549" height="220" as="geometry" />
        </mxCell>
        <mxCell id="NJt9awCA1hXl86DGp1sZ-231" value="进度状态" style="text;html=1;align=center;verticalAlign=middle;resizable=0;points=[];autosize=1;fontSize=14;" parent="NJt9awCA1hXl86DGp1sZ-11" vertex="1">
          <mxGeometry x="128.75" y="3885" width="70" height="20" as="geometry" />
        </mxCell>
        <mxCell id="NJt9awCA1hXl86DGp1sZ-232" value="工单编号" style="text;html=1;align=center;verticalAlign=middle;resizable=0;points=[];autosize=1;fontSize=14;" parent="NJt9awCA1hXl86DGp1sZ-11" vertex="1">
          <mxGeometry x="125" y="3845" width="70" height="20" as="geometry" />
        </mxCell>
        <mxCell id="NJt9awCA1hXl86DGp1sZ-233" value="Input" style="rounded=0;whiteSpace=wrap;html=1;fontSize=14;" parent="NJt9awCA1hXl86DGp1sZ-11" vertex="1">
          <mxGeometry x="193.25" y="3840" width="63.5" height="25" as="geometry" />
        </mxCell>
        <mxCell id="NJt9awCA1hXl86DGp1sZ-235" value="新建工单" style="strokeWidth=1;shadow=0;dashed=0;align=center;html=1;shape=mxgraph.mockup.forms.rrect;rSize=0;fillColor=#eeeeee;strokeColor=#999999;gradientColor=#cccccc;align=left;spacingLeft=4;fontSize=17;fontColor=#666666;labelPosition=right;rounded=1;glass=0;dashPattern=1 2;sketch=0;" parent="NJt9awCA1hXl86DGp1sZ-11" vertex="1">
          <mxGeometry x="204" y="3887.5" width="15" height="15" as="geometry" />
        </mxCell>
        <mxCell id="NJt9awCA1hXl86DGp1sZ-237" value="工单审核" style="strokeWidth=1;shadow=0;dashed=0;align=center;html=1;shape=mxgraph.mockup.forms.rrect;rSize=0;fillColor=#eeeeee;strokeColor=#999999;gradientColor=#cccccc;align=left;spacingLeft=4;fontSize=17;fontColor=#666666;labelPosition=right;rounded=1;glass=0;dashPattern=1 2;sketch=0;" parent="NJt9awCA1hXl86DGp1sZ-11" vertex="1">
          <mxGeometry x="305" y="3890" width="15" height="15" as="geometry" />
        </mxCell>
        <mxCell id="NJt9awCA1hXl86DGp1sZ-238" value="任务实施" style="strokeWidth=1;shadow=0;dashed=0;align=center;html=1;shape=mxgraph.mockup.forms.rrect;rSize=0;fillColor=#eeeeee;strokeColor=#999999;gradientColor=#cccccc;align=left;spacingLeft=4;fontSize=17;fontColor=#666666;labelPosition=right;rounded=1;glass=0;dashPattern=1 2;sketch=0;" parent="NJt9awCA1hXl86DGp1sZ-11" vertex="1">
          <mxGeometry x="405" y="3887.5" width="15" height="15" as="geometry" />
        </mxCell>
        <mxCell id="NJt9awCA1hXl86DGp1sZ-240" value="工单结算" style="strokeWidth=1;shadow=0;dashed=0;align=center;html=1;shape=mxgraph.mockup.forms.rrect;rSize=0;fillColor=#eeeeee;strokeColor=#999999;gradientColor=#cccccc;align=left;spacingLeft=4;fontSize=17;fontColor=#666666;labelPosition=right;rounded=1;glass=0;dashPattern=1 2;sketch=0;" parent="NJt9awCA1hXl86DGp1sZ-11" vertex="1">
          <mxGeometry x="505" y="3890" width="15" height="15" as="geometry" />
        </mxCell>
        <mxCell id="NJt9awCA1hXl86DGp1sZ-241" value="取消" style="rounded=1;whiteSpace=wrap;html=1;fontSize=14;" parent="NJt9awCA1hXl86DGp1sZ-11" vertex="1">
          <mxGeometry x="1180" y="4530" width="77" height="30" as="geometry" />
        </mxCell>
        <mxCell id="bfiqpeBWppTH1w2yS7td-1" value="维修记录查询" style="shape=umlFrame;whiteSpace=wrap;html=1;rounded=1;glass=0;sketch=0;fontSize=16;width=30;height=210;fillColor=#FFFFFF;" parent="NJt9awCA1hXl86DGp1sZ-11" vertex="1">
          <mxGeometry x="750" y="3770" width="573.5" height="320" as="geometry" />
        </mxCell>
        <mxCell id="bfiqpeBWppTH1w2yS7td-3" value="&lt;table cellpadding=&quot;4&quot; cellspacing=&quot;0&quot; border=&quot;1&quot; style=&quot;font-size: 1em ; width: 100% ; height: 100%&quot;&gt;&lt;tbody&gt;&lt;tr&gt;&lt;th&gt;序号&lt;/th&gt;&lt;td&gt;&lt;b&gt;归属工序&lt;/b&gt;&lt;/td&gt;&lt;td&gt;&lt;b&gt;报修日期&lt;/b&gt;&lt;/td&gt;&lt;td&gt;&lt;b&gt;产品线&lt;/b&gt;&lt;/td&gt;&lt;td&gt;&lt;b&gt;传票号&lt;/b&gt;&lt;br&gt;&lt;/td&gt;&lt;th&gt;型号&lt;/th&gt;&lt;td&gt;&lt;b&gt;故障现象&lt;/b&gt;&lt;/td&gt;&lt;td&gt;&lt;b&gt;故障原因&lt;/b&gt;&lt;/td&gt;&lt;td&gt;&lt;b&gt;责任归属&lt;/b&gt;&lt;/td&gt;&lt;/tr&gt;&lt;tr&gt;&lt;td&gt;xxx111&lt;/td&gt;&lt;td&gt;&lt;/td&gt;&lt;td&gt;&lt;br&gt;&lt;/td&gt;&lt;td&gt;&lt;br&gt;&lt;/td&gt;&lt;td&gt;&lt;br&gt;&lt;/td&gt;&lt;td&gt;&lt;br&gt;&lt;/td&gt;&lt;td&gt;&lt;br&gt;&lt;/td&gt;&lt;td&gt;&lt;br&gt;&lt;/td&gt;&lt;td&gt;&lt;br&gt;&lt;/td&gt;&lt;/tr&gt;&lt;tr&gt;&lt;td&gt;xxx222&lt;/td&gt;&lt;td&gt;&lt;br&gt;&lt;/td&gt;&lt;td&gt;&lt;br&gt;&lt;/td&gt;&lt;td&gt;&lt;br&gt;&lt;/td&gt;&lt;td&gt;&lt;br&gt;&lt;/td&gt;&lt;td&gt;&lt;br&gt;&lt;/td&gt;&lt;td&gt;&lt;br&gt;&lt;/td&gt;&lt;td&gt;&lt;br&gt;&lt;/td&gt;&lt;td&gt;&lt;br&gt;&lt;/td&gt;&lt;/tr&gt;&lt;tr&gt;&lt;td&gt;xxx333&lt;/td&gt;&lt;td&gt;&lt;br&gt;&lt;/td&gt;&lt;td&gt;&lt;br&gt;&lt;/td&gt;&lt;td&gt;&lt;br&gt;&lt;/td&gt;&lt;td&gt;&lt;br&gt;&lt;/td&gt;&lt;td&gt;&lt;br&gt;&lt;/td&gt;&lt;td&gt;&lt;br&gt;&lt;/td&gt;&lt;td&gt;&lt;br&gt;&lt;/td&gt;&lt;td&gt;&lt;br&gt;&lt;/td&gt;&lt;/tr&gt;&lt;tr&gt;&lt;td&gt;xxx444&lt;/td&gt;&lt;td&gt;&lt;br&gt;&lt;/td&gt;&lt;td&gt;&lt;br&gt;&lt;/td&gt;&lt;td&gt;&lt;br&gt;&lt;/td&gt;&lt;td&gt;&lt;br&gt;&lt;/td&gt;&lt;td&gt;&lt;br&gt;&lt;/td&gt;&lt;td&gt;&lt;br&gt;&lt;/td&gt;&lt;td&gt;&lt;br&gt;&lt;/td&gt;&lt;td&gt;&lt;br&gt;&lt;/td&gt;&lt;/tr&gt;&lt;/tbody&gt;&lt;/table&gt; " style="verticalAlign=top;align=left;overflow=fill;fontSize=12;fontFamily=Helvetica;html=1;strokeColor=none;fontColor=#000000;" parent="NJt9awCA1hXl86DGp1sZ-11" vertex="1">
          <mxGeometry x="790" y="3787.5" width="500.25" height="282.5" as="geometry" />
        </mxCell>
        <mxCell id="bfiqpeBWppTH1w2yS7td-5" value="本月进度导出" style="rounded=1;whiteSpace=wrap;html=1;fontSize=14;" parent="NJt9awCA1hXl86DGp1sZ-11" vertex="1">
          <mxGeometry x="473" y="4100" width="97" height="30" as="geometry" />
        </mxCell>
        <mxCell id="bfiqpeBWppTH1w2yS7td-7" value="要求完工时间" style="text;html=1;align=center;verticalAlign=middle;resizable=0;points=[];autosize=1;fontSize=14;" parent="NJt9awCA1hXl86DGp1sZ-11" vertex="1">
          <mxGeometry x="122.25" y="3930" width="100" height="20" as="geometry" />
        </mxCell>
        <mxCell id="bfiqpeBWppTH1w2yS7td-8" value="Date" style="rounded=0;whiteSpace=wrap;html=1;fontSize=14;" parent="NJt9awCA1hXl86DGp1sZ-11" vertex="1">
          <mxGeometry x="224.5" y="3930" width="63.5" height="25" as="geometry" />
        </mxCell>
        <mxCell id="bfiqpeBWppTH1w2yS7td-9" value="Date" style="rounded=0;whiteSpace=wrap;html=1;fontSize=14;" parent="NJt9awCA1hXl86DGp1sZ-11" vertex="1">
          <mxGeometry x="335.75" y="3930" width="63.5" height="25" as="geometry" />
        </mxCell>
        <mxCell id="bfiqpeBWppTH1w2yS7td-10" value="至" style="text;html=1;align=center;verticalAlign=middle;resizable=0;points=[];autosize=1;fontSize=14;" parent="NJt9awCA1hXl86DGp1sZ-11" vertex="1">
          <mxGeometry x="294" y="3932.5" width="30" height="20" as="geometry" />
        </mxCell>
        <mxCell id="bfiqpeBWppTH1w2yS7td-20" value="原数量" style="text;html=1;align=center;verticalAlign=middle;resizable=0;points=[];autosize=1;fontSize=14;" parent="NJt9awCA1hXl86DGp1sZ-11" vertex="1">
          <mxGeometry x="850" y="4310" width="60" height="20" as="geometry" />
        </mxCell>
        <mxCell id="bfiqpeBWppTH1w2yS7td-21" value="新的实施单位" style="text;html=1;align=center;verticalAlign=middle;resizable=0;points=[];autosize=1;fontSize=14;" parent="NJt9awCA1hXl86DGp1sZ-11" vertex="1">
          <mxGeometry x="1106.5" y="4395" width="100" height="20" as="geometry" />
        </mxCell>
        <mxCell id="bfiqpeBWppTH1w2yS7td-22" value="Select" style="rounded=0;whiteSpace=wrap;html=1;fontSize=14;" parent="NJt9awCA1hXl86DGp1sZ-11" vertex="1">
          <mxGeometry x="1216.5" y="4392.5" width="63.5" height="25" as="geometry" />
        </mxCell>
        <mxCell id="bfiqpeBWppTH1w2yS7td-24" value="原工时" style="text;html=1;align=center;verticalAlign=middle;resizable=0;points=[];autosize=1;fontSize=14;" parent="NJt9awCA1hXl86DGp1sZ-11" vertex="1">
          <mxGeometry x="975.75" y="4310" width="60" height="20" as="geometry" />
        </mxCell>
        <mxCell id="bfiqpeBWppTH1w2yS7td-25" value="Number" style="rounded=0;whiteSpace=wrap;html=1;fontSize=14;" parent="NJt9awCA1hXl86DGp1sZ-11" vertex="1">
          <mxGeometry x="910" y="4395" width="63.5" height="25" as="geometry" />
        </mxCell>
        <mxCell id="bfiqpeBWppTH1w2yS7td-26" value="数量" style="text;html=1;align=center;verticalAlign=middle;resizable=0;points=[];autosize=1;fontSize=14;" parent="NJt9awCA1hXl86DGp1sZ-11" vertex="1">
          <mxGeometry x="860" y="4400" width="40" height="20" as="geometry" />
        </mxCell>
        <mxCell id="bfiqpeBWppTH1w2yS7td-27" value="Number" style="rounded=0;whiteSpace=wrap;html=1;fontSize=14;" parent="NJt9awCA1hXl86DGp1sZ-11" vertex="1">
          <mxGeometry x="1035.75" y="4392.5" width="63.5" height="25" as="geometry" />
        </mxCell>
        <mxCell id="bfiqpeBWppTH1w2yS7td-28" value="工时" style="text;html=1;align=center;verticalAlign=middle;resizable=0;points=[];autosize=1;fontSize=14;" parent="NJt9awCA1hXl86DGp1sZ-11" vertex="1">
          <mxGeometry x="985.75" y="4397.5" width="40" height="20" as="geometry" />
        </mxCell>
        <mxCell id="bfiqpeBWppTH1w2yS7td-31" value="再拆一单" style="rounded=1;whiteSpace=wrap;html=1;fontSize=14;" parent="NJt9awCA1hXl86DGp1sZ-11" vertex="1">
          <mxGeometry x="1103" y="4300" width="80" height="30" as="geometry" />
        </mxCell>
        <mxCell id="bfiqpeBWppTH1w2yS7td-32" value="删除" style="rounded=1;whiteSpace=wrap;html=1;fontSize=14;" parent="NJt9awCA1hXl86DGp1sZ-11" vertex="1">
          <mxGeometry x="1300" y="4390" width="50" height="30" as="geometry" />
        </mxCell>
        <mxCell id="bfiqpeBWppTH1w2yS7td-35" value="" style="endArrow=none;dashed=1;html=1;dashPattern=1 3;strokeWidth=2;fontSize=16;entryX=1.002;entryY=0.309;entryDx=0;entryDy=0;entryPerimeter=0;exitX=0.004;exitY=0.306;exitDx=0;exitDy=0;exitPerimeter=0;" parent="NJt9awCA1hXl86DGp1sZ-11" source="bfiqpeBWppTH1w2yS7td-11" target="bfiqpeBWppTH1w2yS7td-11" edge="1">
          <mxGeometry width="50" height="50" relative="1" as="geometry">
            <mxPoint x="850" y="4366" as="sourcePoint" />
            <mxPoint x="1080" y="4400" as="targetPoint" />
          </mxGeometry>
        </mxCell>
        <mxCell id="7eqobrJOsDGK3rnH4i1W-0" value="料号" style="text;html=1;align=center;verticalAlign=middle;resizable=0;points=[];autosize=1;fontSize=14;" parent="NJt9awCA1hXl86DGp1sZ-11" vertex="1">
          <mxGeometry x="295" y="363" width="40" height="20" as="geometry" />
        </mxCell>
        <mxCell id="7eqobrJOsDGK3rnH4i1W-1" value="&lt;span&gt;Select&lt;/span&gt;" style="rounded=0;whiteSpace=wrap;html=1;fontSize=14;" parent="NJt9awCA1hXl86DGp1sZ-11" vertex="1">
          <mxGeometry x="356" y="361" width="70" height="25" as="geometry" />
        </mxCell>
        <mxCell id="7eqobrJOsDGK3rnH4i1W-2" value="1.创建工单-被驳回" style="text;html=1;align=center;verticalAlign=middle;resizable=0;points=[];autosize=1;fontSize=20;" parent="NJt9awCA1hXl86DGp1sZ-11" vertex="1">
          <mxGeometry x="680" y="210" width="180" height="30" as="geometry" />
        </mxCell>
        <mxCell id="7eqobrJOsDGK3rnH4i1W-3" value="" style="rounded=0;whiteSpace=wrap;html=1;fontSize=14;" parent="NJt9awCA1hXl86DGp1sZ-11" vertex="1">
          <mxGeometry x="684" y="250" width="590" height="630" as="geometry" />
        </mxCell>
        <mxCell id="7eqobrJOsDGK3rnH4i1W-4" value="产品线" style="text;html=1;align=center;verticalAlign=middle;resizable=0;points=[];autosize=1;fontSize=14;" parent="NJt9awCA1hXl86DGp1sZ-11" vertex="1">
          <mxGeometry x="734" y="302" width="60" height="20" as="geometry" />
        </mxCell>
        <mxCell id="7eqobrJOsDGK3rnH4i1W-5" value="产品小类" style="text;html=1;align=center;verticalAlign=middle;resizable=0;points=[];autosize=1;fontSize=14;" parent="NJt9awCA1hXl86DGp1sZ-11" vertex="1">
          <mxGeometry x="894" y="302" width="70" height="20" as="geometry" />
        </mxCell>
        <mxCell id="7eqobrJOsDGK3rnH4i1W-6" value="需求来源" style="text;html=1;align=center;verticalAlign=middle;resizable=0;points=[];autosize=1;fontSize=14;" parent="NJt9awCA1hXl86DGp1sZ-11" vertex="1">
          <mxGeometry x="1064" y="302" width="70" height="20" as="geometry" />
        </mxCell>
        <mxCell id="7eqobrJOsDGK3rnH4i1W-7" value="工单编号" style="text;html=1;align=center;verticalAlign=middle;resizable=0;points=[];autosize=1;fontSize=14;" parent="NJt9awCA1hXl86DGp1sZ-11" vertex="1">
          <mxGeometry x="724" y="335" width="70" height="20" as="geometry" />
        </mxCell>
        <mxCell id="7eqobrJOsDGK3rnH4i1W-8" value="传票号" style="text;html=1;align=center;verticalAlign=middle;resizable=0;points=[];autosize=1;fontSize=14;" parent="NJt9awCA1hXl86DGp1sZ-11" vertex="1">
          <mxGeometry x="904" y="335" width="60" height="20" as="geometry" />
        </mxCell>
        <mxCell id="7eqobrJOsDGK3rnH4i1W-9" value="&lt;span&gt;Select&lt;/span&gt;" style="rounded=0;whiteSpace=wrap;html=1;fontSize=14;" parent="NJt9awCA1hXl86DGp1sZ-11" vertex="1">
          <mxGeometry x="799" y="300" width="70" height="25" as="geometry" />
        </mxCell>
        <mxCell id="7eqobrJOsDGK3rnH4i1W-10" value="&lt;span&gt;Select&lt;/span&gt;" style="rounded=0;whiteSpace=wrap;html=1;fontSize=14;" parent="NJt9awCA1hXl86DGp1sZ-11" vertex="1">
          <mxGeometry x="970" y="300" width="70" height="25" as="geometry" />
        </mxCell>
        <mxCell id="7eqobrJOsDGK3rnH4i1W-11" value="&lt;span&gt;Select&lt;/span&gt;" style="rounded=0;whiteSpace=wrap;html=1;fontSize=14;" parent="NJt9awCA1hXl86DGp1sZ-11" vertex="1">
          <mxGeometry x="1140" y="297" width="70" height="25" as="geometry" />
        </mxCell>
        <mxCell id="7eqobrJOsDGK3rnH4i1W-12" value="（）" style="rounded=0;whiteSpace=wrap;html=1;fontSize=14;fillColor=#d6d6d6;" parent="NJt9awCA1hXl86DGp1sZ-11" vertex="1">
          <mxGeometry x="799" y="334" width="70" height="25" as="geometry" />
        </mxCell>
        <mxCell id="7eqobrJOsDGK3rnH4i1W-13" value="Input" style="rounded=0;whiteSpace=wrap;html=1;fontSize=14;" parent="NJt9awCA1hXl86DGp1sZ-11" vertex="1">
          <mxGeometry x="970" y="335" width="70" height="25" as="geometry" />
        </mxCell>
        <mxCell id="7eqobrJOsDGK3rnH4i1W-14" value="型号" style="text;html=1;align=center;verticalAlign=middle;resizable=0;points=[];autosize=1;fontSize=14;" parent="NJt9awCA1hXl86DGp1sZ-11" vertex="1">
          <mxGeometry x="1087" y="336" width="40" height="20" as="geometry" />
        </mxCell>
        <mxCell id="7eqobrJOsDGK3rnH4i1W-15" value="Select" style="rounded=0;whiteSpace=wrap;html=1;fontSize=14;" parent="NJt9awCA1hXl86DGp1sZ-11" vertex="1">
          <mxGeometry x="1140" y="335" width="70" height="25" as="geometry" />
        </mxCell>
        <mxCell id="7eqobrJOsDGK3rnH4i1W-16" value="数量" style="text;html=1;align=center;verticalAlign=middle;resizable=0;points=[];autosize=1;fontSize=14;" parent="NJt9awCA1hXl86DGp1sZ-11" vertex="1">
          <mxGeometry x="746" y="371" width="40" height="20" as="geometry" />
        </mxCell>
        <mxCell id="7eqobrJOsDGK3rnH4i1W-17" value="Number" style="rounded=0;whiteSpace=wrap;html=1;fontSize=14;" parent="NJt9awCA1hXl86DGp1sZ-11" vertex="1">
          <mxGeometry x="799" y="370" width="70" height="25" as="geometry" />
        </mxCell>
        <mxCell id="7eqobrJOsDGK3rnH4i1W-18" value="特殊说明" style="text;html=1;align=center;verticalAlign=middle;resizable=0;points=[];autosize=1;fontSize=14;" parent="NJt9awCA1hXl86DGp1sZ-11" vertex="1">
          <mxGeometry x="714" y="410" width="70" height="20" as="geometry" />
        </mxCell>
        <mxCell id="7eqobrJOsDGK3rnH4i1W-19" value="Text" style="rounded=0;whiteSpace=wrap;html=1;fontSize=14;" parent="NJt9awCA1hXl86DGp1sZ-11" vertex="1">
          <mxGeometry x="797" y="410" width="407" height="80" as="geometry" />
        </mxCell>
        <mxCell id="7eqobrJOsDGK3rnH4i1W-20" value="需求文件" style="text;html=1;align=center;verticalAlign=middle;resizable=0;points=[];autosize=1;fontSize=14;" parent="NJt9awCA1hXl86DGp1sZ-11" vertex="1">
          <mxGeometry x="709" y="510" width="70" height="20" as="geometry" />
        </mxCell>
        <mxCell id="7eqobrJOsDGK3rnH4i1W-21" value="点击上传" style="rounded=1;whiteSpace=wrap;html=1;fontSize=14;" parent="NJt9awCA1hXl86DGp1sZ-11" vertex="1">
          <mxGeometry x="797" y="505" width="70" height="30" as="geometry" />
        </mxCell>
        <mxCell id="7eqobrJOsDGK3rnH4i1W-22" value="List" style="rounded=0;whiteSpace=wrap;html=1;fontSize=14;" parent="NJt9awCA1hXl86DGp1sZ-11" vertex="1">
          <mxGeometry x="797" y="550" width="417" height="70" as="geometry" />
        </mxCell>
        <mxCell id="7eqobrJOsDGK3rnH4i1W-23" value="已上传附件" style="text;html=1;align=center;verticalAlign=middle;resizable=0;points=[];autosize=1;fontSize=14;" parent="NJt9awCA1hXl86DGp1sZ-11" vertex="1">
          <mxGeometry x="689" y="550" width="90" height="20" as="geometry" />
        </mxCell>
        <mxCell id="7eqobrJOsDGK3rnH4i1W-24" value="需求文档.doc&amp;nbsp;" style="rounded=0;whiteSpace=wrap;html=1;fontSize=14;" parent="NJt9awCA1hXl86DGp1sZ-11" vertex="1">
          <mxGeometry x="804" y="560" width="120" height="30" as="geometry" />
        </mxCell>
        <mxCell id="7eqobrJOsDGK3rnH4i1W-25" value="" style="shape=sumEllipse;perimeter=ellipsePerimeter;whiteSpace=wrap;html=1;backgroundOutline=1;rounded=1;glass=0;sketch=0;fontSize=20;" parent="NJt9awCA1hXl86DGp1sZ-11" vertex="1">
          <mxGeometry x="904" y="567" width="16" height="16" as="geometry" />
        </mxCell>
        <mxCell id="7eqobrJOsDGK3rnH4i1W-26" value="创建人" style="text;html=1;align=right;verticalAlign=middle;resizable=0;points=[];autosize=1;fontSize=14;" parent="NJt9awCA1hXl86DGp1sZ-11" vertex="1">
          <mxGeometry x="709" y="650" width="60" height="20" as="geometry" />
        </mxCell>
        <mxCell id="7eqobrJOsDGK3rnH4i1W-27" value="张林 2020-09-22" style="text;html=1;align=right;verticalAlign=middle;resizable=0;points=[];autosize=1;fontSize=14;" parent="NJt9awCA1hXl86DGp1sZ-11" vertex="1">
          <mxGeometry x="776" y="650" width="120" height="20" as="geometry" />
        </mxCell>
        <mxCell id="7eqobrJOsDGK3rnH4i1W-28" value="料号" style="text;html=1;align=center;verticalAlign=middle;resizable=0;points=[];autosize=1;fontSize=14;" parent="NJt9awCA1hXl86DGp1sZ-11" vertex="1">
          <mxGeometry x="909" y="373" width="40" height="20" as="geometry" />
        </mxCell>
        <mxCell id="7eqobrJOsDGK3rnH4i1W-29" value="&lt;span&gt;Select&lt;/span&gt;" style="rounded=0;whiteSpace=wrap;html=1;fontSize=14;" parent="NJt9awCA1hXl86DGp1sZ-11" vertex="1">
          <mxGeometry x="970" y="371" width="70" height="25" as="geometry" />
        </mxCell>
        <mxCell id="7eqobrJOsDGK3rnH4i1W-30" value="" style="rounded=0;whiteSpace=wrap;html=1;fontSize=14;" parent="NJt9awCA1hXl86DGp1sZ-11" vertex="1">
          <mxGeometry x="714" y="720" width="500" height="100" as="geometry" />
        </mxCell>
        <mxCell id="7eqobrJOsDGK3rnH4i1W-31" value="备注" style="text;html=1;align=center;verticalAlign=middle;resizable=0;points=[];autosize=1;fontSize=14;" parent="NJt9awCA1hXl86DGp1sZ-11" vertex="1">
          <mxGeometry x="750" y="760.5" width="40" height="20" as="geometry" />
        </mxCell>
        <mxCell id="7eqobrJOsDGK3rnH4i1W-32" value="Text" style="rounded=0;whiteSpace=wrap;html=1;fontSize=14;" parent="NJt9awCA1hXl86DGp1sZ-11" vertex="1">
          <mxGeometry x="795" y="760" width="395" height="25" as="geometry" />
        </mxCell>
        <mxCell id="7eqobrJOsDGK3rnH4i1W-33" value="暂存" style="rounded=1;whiteSpace=wrap;html=1;fontSize=14;" parent="NJt9awCA1hXl86DGp1sZ-11" vertex="1">
          <mxGeometry x="450" y="635" width="70" height="30" as="geometry" />
        </mxCell>
        <mxCell id="7eqobrJOsDGK3rnH4i1W-34" value="发送" style="rounded=1;whiteSpace=wrap;html=1;fontSize=14;" parent="NJt9awCA1hXl86DGp1sZ-11" vertex="1">
          <mxGeometry x="531" y="635" width="70" height="30" as="geometry" />
        </mxCell>
        <mxCell id="7eqobrJOsDGK3rnH4i1W-35" value="暂存" style="rounded=1;whiteSpace=wrap;html=1;fontSize=14;" parent="NJt9awCA1hXl86DGp1sZ-11" vertex="1">
          <mxGeometry x="1053" y="840" width="70" height="30" as="geometry" />
        </mxCell>
        <mxCell id="7eqobrJOsDGK3rnH4i1W-36" value="发送" style="rounded=1;whiteSpace=wrap;html=1;fontSize=14;" parent="NJt9awCA1hXl86DGp1sZ-11" vertex="1">
          <mxGeometry x="1134" y="840" width="70" height="30" as="geometry" />
        </mxCell>
        <mxCell id="7eqobrJOsDGK3rnH4i1W-40" value="暂存" style="rounded=1;whiteSpace=wrap;html=1;fontSize=14;" parent="NJt9awCA1hXl86DGp1sZ-11" vertex="1">
          <mxGeometry x="506.5" y="1970" width="70" height="30" as="geometry" />
        </mxCell>
        <mxCell id="7eqobrJOsDGK3rnH4i1W-41" value="添加" style="rounded=1;whiteSpace=wrap;html=1;fontSize=14;" parent="NJt9awCA1hXl86DGp1sZ-11" vertex="1">
          <mxGeometry x="586.5" y="1970" width="70" height="30" as="geometry" />
        </mxCell>
        <mxCell id="zn-4flutmrSCrY1gMnkt-0" value="搜索" style="rounded=1;whiteSpace=wrap;html=1;fontSize=14;" parent="NJt9awCA1hXl86DGp1sZ-11" vertex="1">
          <mxGeometry x="567" y="3970" width="70" height="30" as="geometry" />
        </mxCell>
        <mxCell id="zn-4flutmrSCrY1gMnkt-1" value="清空" style="rounded=1;whiteSpace=wrap;html=1;fontSize=14;" parent="NJt9awCA1hXl86DGp1sZ-11" vertex="1">
          <mxGeometry x="473" y="3970" width="77" height="30" as="geometry" />
        </mxCell>
        <mxCell id="wAlXlOLfTSp1UA3SI0B5-0" value="2" style="rounded=0;whiteSpace=wrap;html=1;fontSize=14;" parent="NJt9awCA1hXl86DGp1sZ-11" vertex="1">
          <mxGeometry x="100" y="1530" width="551" height="90" as="geometry" />
        </mxCell>
        <mxCell id="wAlXlOLfTSp1UA3SI0B5-1" value="2" style="rounded=0;whiteSpace=wrap;html=1;fontSize=14;" parent="NJt9awCA1hXl86DGp1sZ-11" vertex="1">
          <mxGeometry x="111" y="2210" width="548" height="70" as="geometry" />
        </mxCell>
        <mxCell id="wAlXlOLfTSp1UA3SI0B5-2" value="3" style="rounded=0;whiteSpace=wrap;html=1;fontSize=14;" parent="NJt9awCA1hXl86DGp1sZ-11" vertex="1">
          <mxGeometry x="110" y="2290" width="548" height="60" as="geometry" />
        </mxCell>
        <mxCell id="wAlXlOLfTSp1UA3SI0B5-4" value="8.工单详情" style="text;html=1;align=center;verticalAlign=middle;resizable=0;points=[];autosize=1;fontSize=20;" parent="NJt9awCA1hXl86DGp1sZ-11" vertex="1">
          <mxGeometry x="90" y="4450" width="110" height="30" as="geometry" />
        </mxCell>
        <mxCell id="wAlXlOLfTSp1UA3SI0B5-32" value="产品线" style="text;html=1;align=center;verticalAlign=middle;resizable=0;points=[];autosize=1;fontSize=14;" parent="NJt9awCA1hXl86DGp1sZ-11" vertex="1">
          <mxGeometry x="170" y="4535" width="60" height="20" as="geometry" />
        </mxCell>
        <mxCell id="wAlXlOLfTSp1UA3SI0B5-33" value="产品小类" style="text;html=1;align=center;verticalAlign=middle;resizable=0;points=[];autosize=1;fontSize=14;" parent="NJt9awCA1hXl86DGp1sZ-11" vertex="1">
          <mxGeometry x="330" y="4535" width="70" height="20" as="geometry" />
        </mxCell>
        <mxCell id="wAlXlOLfTSp1UA3SI0B5-34" value="需求来源" style="text;html=1;align=center;verticalAlign=middle;resizable=0;points=[];autosize=1;fontSize=14;" parent="NJt9awCA1hXl86DGp1sZ-11" vertex="1">
          <mxGeometry x="500" y="4535" width="70" height="20" as="geometry" />
        </mxCell>
        <mxCell id="wAlXlOLfTSp1UA3SI0B5-35" value="工单编号" style="text;html=1;align=center;verticalAlign=middle;resizable=0;points=[];autosize=1;fontSize=14;" parent="NJt9awCA1hXl86DGp1sZ-11" vertex="1">
          <mxGeometry x="160" y="4568" width="70" height="20" as="geometry" />
        </mxCell>
        <mxCell id="wAlXlOLfTSp1UA3SI0B5-36" value="传票号" style="text;html=1;align=center;verticalAlign=middle;resizable=0;points=[];autosize=1;fontSize=14;" parent="NJt9awCA1hXl86DGp1sZ-11" vertex="1">
          <mxGeometry x="340" y="4568" width="60" height="20" as="geometry" />
        </mxCell>
        <mxCell id="wAlXlOLfTSp1UA3SI0B5-37" value="&lt;span&gt;Select&lt;/span&gt;" style="rounded=0;whiteSpace=wrap;html=1;fontSize=14;" parent="NJt9awCA1hXl86DGp1sZ-11" vertex="1">
          <mxGeometry x="235" y="4533" width="70" height="25" as="geometry" />
        </mxCell>
        <mxCell id="wAlXlOLfTSp1UA3SI0B5-38" value="&lt;span&gt;Select&lt;/span&gt;" style="rounded=0;whiteSpace=wrap;html=1;fontSize=14;" parent="NJt9awCA1hXl86DGp1sZ-11" vertex="1">
          <mxGeometry x="406" y="4533" width="70" height="25" as="geometry" />
        </mxCell>
        <mxCell id="wAlXlOLfTSp1UA3SI0B5-39" value="&lt;span&gt;Select&lt;/span&gt;" style="rounded=0;whiteSpace=wrap;html=1;fontSize=14;" parent="NJt9awCA1hXl86DGp1sZ-11" vertex="1">
          <mxGeometry x="576" y="4530" width="70" height="25" as="geometry" />
        </mxCell>
        <mxCell id="wAlXlOLfTSp1UA3SI0B5-40" value="（）" style="rounded=0;whiteSpace=wrap;html=1;fontSize=14;strokeColor=#666666;fontColor=#333333;fillColor=#D6D6D6;" parent="NJt9awCA1hXl86DGp1sZ-11" vertex="1">
          <mxGeometry x="235" y="4567" width="70" height="25" as="geometry" />
        </mxCell>
        <mxCell id="wAlXlOLfTSp1UA3SI0B5-41" value="Input" style="rounded=0;whiteSpace=wrap;html=1;fontSize=14;" parent="NJt9awCA1hXl86DGp1sZ-11" vertex="1">
          <mxGeometry x="406" y="4568" width="70" height="25" as="geometry" />
        </mxCell>
        <mxCell id="wAlXlOLfTSp1UA3SI0B5-42" value="型号" style="text;html=1;align=center;verticalAlign=middle;resizable=0;points=[];autosize=1;fontSize=14;" parent="NJt9awCA1hXl86DGp1sZ-11" vertex="1">
          <mxGeometry x="523" y="4569" width="40" height="20" as="geometry" />
        </mxCell>
        <mxCell id="wAlXlOLfTSp1UA3SI0B5-43" value="Select" style="rounded=0;whiteSpace=wrap;html=1;fontSize=14;" parent="NJt9awCA1hXl86DGp1sZ-11" vertex="1">
          <mxGeometry x="576" y="4568" width="70" height="25" as="geometry" />
        </mxCell>
        <mxCell id="wAlXlOLfTSp1UA3SI0B5-44" value="数量" style="text;html=1;align=center;verticalAlign=middle;resizable=0;points=[];autosize=1;fontSize=14;" parent="NJt9awCA1hXl86DGp1sZ-11" vertex="1">
          <mxGeometry x="182" y="4604" width="40" height="20" as="geometry" />
        </mxCell>
        <mxCell id="wAlXlOLfTSp1UA3SI0B5-45" value="Number" style="rounded=0;whiteSpace=wrap;html=1;fontSize=14;" parent="NJt9awCA1hXl86DGp1sZ-11" vertex="1">
          <mxGeometry x="235" y="4603" width="70" height="25" as="geometry" />
        </mxCell>
        <mxCell id="wAlXlOLfTSp1UA3SI0B5-46" value="特殊说明" style="text;html=1;align=center;verticalAlign=middle;resizable=0;points=[];autosize=1;fontSize=14;" parent="NJt9awCA1hXl86DGp1sZ-11" vertex="1">
          <mxGeometry x="150" y="4643" width="70" height="20" as="geometry" />
        </mxCell>
        <mxCell id="wAlXlOLfTSp1UA3SI0B5-47" value="Text" style="rounded=0;whiteSpace=wrap;html=1;fontSize=14;" parent="NJt9awCA1hXl86DGp1sZ-11" vertex="1">
          <mxGeometry x="233" y="4643" width="407" height="80" as="geometry" />
        </mxCell>
        <mxCell id="wAlXlOLfTSp1UA3SI0B5-48" value="需求文件" style="text;html=1;align=center;verticalAlign=middle;resizable=0;points=[];autosize=1;fontSize=14;strokeColor=#FFFFFF;fillColor=#FFFFFF;fontColor=#D6D6D6;" parent="NJt9awCA1hXl86DGp1sZ-11" vertex="1">
          <mxGeometry x="145" y="4743" width="70" height="20" as="geometry" />
        </mxCell>
        <mxCell id="wAlXlOLfTSp1UA3SI0B5-49" value="点击上传" style="rounded=1;whiteSpace=wrap;html=1;fontSize=14;strokeColor=#FFFFFF;fillColor=#FFFFFF;fontColor=#D6D6D6;" parent="NJt9awCA1hXl86DGp1sZ-11" vertex="1">
          <mxGeometry x="233" y="4738" width="70" height="30" as="geometry" />
        </mxCell>
        <mxCell id="wAlXlOLfTSp1UA3SI0B5-50" value="List" style="rounded=0;whiteSpace=wrap;html=1;fontSize=14;" parent="NJt9awCA1hXl86DGp1sZ-11" vertex="1">
          <mxGeometry x="233" y="4783" width="417" height="70" as="geometry" />
        </mxCell>
        <mxCell id="wAlXlOLfTSp1UA3SI0B5-51" value="已上传附件" style="text;html=1;align=center;verticalAlign=middle;resizable=0;points=[];autosize=1;fontSize=14;" parent="NJt9awCA1hXl86DGp1sZ-11" vertex="1">
          <mxGeometry x="125" y="4783" width="90" height="20" as="geometry" />
        </mxCell>
        <mxCell id="wAlXlOLfTSp1UA3SI0B5-52" value="需求文档.doc&amp;nbsp;" style="rounded=0;whiteSpace=wrap;html=1;fontSize=14;" parent="NJt9awCA1hXl86DGp1sZ-11" vertex="1">
          <mxGeometry x="240" y="4793" width="120" height="30" as="geometry" />
        </mxCell>
        <mxCell id="wAlXlOLfTSp1UA3SI0B5-53" value="" style="shape=sumEllipse;perimeter=ellipsePerimeter;whiteSpace=wrap;html=1;backgroundOutline=1;rounded=1;glass=0;sketch=0;fontSize=20;" parent="NJt9awCA1hXl86DGp1sZ-11" vertex="1">
          <mxGeometry x="340" y="4800" width="16" height="16" as="geometry" />
        </mxCell>
        <mxCell id="wAlXlOLfTSp1UA3SI0B5-54" value="创建人" style="text;html=1;align=right;verticalAlign=middle;resizable=0;points=[];autosize=1;fontSize=14;" parent="NJt9awCA1hXl86DGp1sZ-11" vertex="1">
          <mxGeometry x="145" y="4883" width="60" height="20" as="geometry" />
        </mxCell>
        <mxCell id="wAlXlOLfTSp1UA3SI0B5-55" value="张林 2020-09-22" style="text;html=1;align=right;verticalAlign=middle;resizable=0;points=[];autosize=1;fontSize=14;" parent="NJt9awCA1hXl86DGp1sZ-11" vertex="1">
          <mxGeometry x="212" y="4883" width="120" height="20" as="geometry" />
        </mxCell>
        <mxCell id="wAlXlOLfTSp1UA3SI0B5-56" value="料号" style="text;html=1;align=center;verticalAlign=middle;resizable=0;points=[];autosize=1;fontSize=14;" parent="NJt9awCA1hXl86DGp1sZ-11" vertex="1">
          <mxGeometry x="345" y="4606" width="40" height="20" as="geometry" />
        </mxCell>
        <mxCell id="wAlXlOLfTSp1UA3SI0B5-57" value="&lt;span&gt;Select&lt;/span&gt;" style="rounded=0;whiteSpace=wrap;html=1;fontSize=14;" parent="NJt9awCA1hXl86DGp1sZ-11" vertex="1">
          <mxGeometry x="406" y="4604" width="70" height="25" as="geometry" />
        </mxCell>
        <mxCell id="uYf6ClkmV7B5uEDgVQdm-0" value="" style="rounded=0;whiteSpace=wrap;html=1;fontSize=14;" parent="NJt9awCA1hXl86DGp1sZ-11" vertex="1">
          <mxGeometry x="129.12" y="5490" width="543.88" height="330" as="geometry" />
        </mxCell>
        <mxCell id="uYf6ClkmV7B5uEDgVQdm-1" value="计价方式" style="text;html=1;align=center;verticalAlign=middle;resizable=0;points=[];autosize=1;fontSize=14;" parent="NJt9awCA1hXl86DGp1sZ-11" vertex="1">
          <mxGeometry x="175.63" y="5510" width="70" height="20" as="geometry" />
        </mxCell>
        <mxCell id="uYf6ClkmV7B5uEDgVQdm-2" value="固定单价" style="shape=ellipse;fillColor=#eeeeee;strokeColor=#999999;gradientColor=#cccccc;html=1;align=left;spacingLeft=4;fontSize=17;fontColor=#666666;labelPosition=right;shadow=0;rounded=1;glass=0;dashed=1;dashPattern=1 2;sketch=0;" parent="NJt9awCA1hXl86DGp1sZ-11" vertex="1">
          <mxGeometry x="256" y="5510" width="15" height="15" as="geometry" />
        </mxCell>
        <mxCell id="uYf6ClkmV7B5uEDgVQdm-3" value="实际工时" style="shape=ellipse;fillColor=#eeeeee;strokeColor=#999999;gradientColor=#cccccc;html=1;align=left;spacingLeft=4;fontSize=17;fontColor=#666666;labelPosition=right;shadow=0;rounded=1;glass=0;dashed=1;dashPattern=1 2;sketch=0;" parent="NJt9awCA1hXl86DGp1sZ-11" vertex="1">
          <mxGeometry x="358" y="5510" width="15" height="15" as="geometry" />
        </mxCell>
        <mxCell id="uYf6ClkmV7B5uEDgVQdm-4" value="Number" style="rounded=0;whiteSpace=wrap;html=1;fontSize=14;" parent="NJt9awCA1hXl86DGp1sZ-11" vertex="1">
          <mxGeometry x="256" y="5540" width="63.5" height="25" as="geometry" />
        </mxCell>
        <mxCell id="uYf6ClkmV7B5uEDgVQdm-5" value="维修费" style="text;html=1;align=center;verticalAlign=middle;resizable=0;points=[];autosize=1;fontSize=14;" parent="NJt9awCA1hXl86DGp1sZ-11" vertex="1">
          <mxGeometry x="179" y="5612.5" width="60" height="20" as="geometry" />
        </mxCell>
        <mxCell id="uYf6ClkmV7B5uEDgVQdm-6" value="Number" style="rounded=0;whiteSpace=wrap;html=1;fontSize=14;" parent="NJt9awCA1hXl86DGp1sZ-11" vertex="1">
          <mxGeometry x="252.5" y="5612.5" width="63.5" height="25" as="geometry" />
        </mxCell>
        <mxCell id="uYf6ClkmV7B5uEDgVQdm-7" value="附加费" style="text;html=1;align=center;verticalAlign=middle;resizable=0;points=[];autosize=1;fontSize=14;" parent="NJt9awCA1hXl86DGp1sZ-11" vertex="1">
          <mxGeometry x="358.5" y="5607.5" width="60" height="20" as="geometry" />
        </mxCell>
        <mxCell id="uYf6ClkmV7B5uEDgVQdm-8" value="Number" style="rounded=0;whiteSpace=wrap;html=1;fontSize=14;" parent="NJt9awCA1hXl86DGp1sZ-11" vertex="1">
          <mxGeometry x="432" y="5607.5" width="63.5" height="25" as="geometry" />
        </mxCell>
        <mxCell id="uYf6ClkmV7B5uEDgVQdm-9" value="量化合计" style="text;html=1;align=center;verticalAlign=middle;resizable=0;points=[];autosize=1;fontSize=14;" parent="NJt9awCA1hXl86DGp1sZ-11" vertex="1">
          <mxGeometry x="177" y="5660" width="70" height="20" as="geometry" />
        </mxCell>
        <mxCell id="uYf6ClkmV7B5uEDgVQdm-10" value="直通率" style="text;html=1;align=center;verticalAlign=middle;resizable=0;points=[];autosize=1;fontSize=14;" parent="NJt9awCA1hXl86DGp1sZ-11" vertex="1">
          <mxGeometry x="367" y="5660" width="60" height="20" as="geometry" />
        </mxCell>
        <mxCell id="uYf6ClkmV7B5uEDgVQdm-11" value="Number" style="rounded=0;whiteSpace=wrap;html=1;fontSize=14;strokeColor=#666666;fontColor=#333333;fillColor=#DBDBDB;" parent="NJt9awCA1hXl86DGp1sZ-11" vertex="1">
          <mxGeometry x="254.5" y="5655" width="64.5" height="25" as="geometry" />
        </mxCell>
        <mxCell id="uYf6ClkmV7B5uEDgVQdm-12" value="Number" style="rounded=0;whiteSpace=wrap;html=1;fontSize=14;strokeColor=#666666;fontColor=#333333;fillColor=#DBDBDB;" parent="NJt9awCA1hXl86DGp1sZ-11" vertex="1">
          <mxGeometry x="431.75" y="5657.5" width="64.5" height="25" as="geometry" />
        </mxCell>
        <mxCell id="uYf6ClkmV7B5uEDgVQdm-13" value="费用承担部门" style="text;html=1;align=center;verticalAlign=middle;resizable=0;points=[];autosize=1;fontSize=14;" parent="NJt9awCA1hXl86DGp1sZ-11" vertex="1">
          <mxGeometry x="140" y="5704.5" width="100" height="20" as="geometry" />
        </mxCell>
        <mxCell id="uYf6ClkmV7B5uEDgVQdm-14" value="Select" style="rounded=0;whiteSpace=wrap;html=1;fontSize=14;" parent="NJt9awCA1hXl86DGp1sZ-11" vertex="1">
          <mxGeometry x="252.5" y="5702" width="63.5" height="25" as="geometry" />
        </mxCell>
        <mxCell id="uYf6ClkmV7B5uEDgVQdm-15" value="备注：固定单价&amp;amp;实时工时 二选一" style="text;html=1;align=center;verticalAlign=middle;resizable=0;points=[];autosize=1;fontSize=14;" parent="NJt9awCA1hXl86DGp1sZ-11" vertex="1">
          <mxGeometry x="353.75" y="5540" width="220" height="20" as="geometry" />
        </mxCell>
        <mxCell id="uYf6ClkmV7B5uEDgVQdm-16" value="计价金额" style="text;html=1;align=center;verticalAlign=middle;resizable=0;points=[];autosize=1;fontSize=14;" parent="NJt9awCA1hXl86DGp1sZ-11" vertex="1">
          <mxGeometry x="172" y="5542.5" width="70" height="20" as="geometry" />
        </mxCell>
        <mxCell id="uYf6ClkmV7B5uEDgVQdm-17" value="备注" style="text;html=1;align=center;verticalAlign=middle;resizable=0;points=[];autosize=1;fontSize=14;" parent="NJt9awCA1hXl86DGp1sZ-11" vertex="1">
          <mxGeometry x="189" y="5740" width="40" height="20" as="geometry" />
        </mxCell>
        <mxCell id="uYf6ClkmV7B5uEDgVQdm-18" value="Text" style="rounded=0;whiteSpace=wrap;html=1;fontSize=14;" parent="NJt9awCA1hXl86DGp1sZ-11" vertex="1">
          <mxGeometry x="252.5" y="5740" width="291.5" height="60" as="geometry" />
        </mxCell>
        <mxCell id="su9JcesjcqNaIWDBYDLt-7" value="" style="group" parent="NJt9awCA1hXl86DGp1sZ-11" vertex="1" connectable="0">
          <mxGeometry x="724" y="4676" width="100" height="194" as="geometry" />
        </mxCell>
        <mxCell id="uYf6ClkmV7B5uEDgVQdm-19" value="" style="html=1;shadow=0;dashed=0;shape=mxgraph.bootstrap.rrect;rSize=5;fillColor=#ffffff;strokeColor=#999999;" parent="su9JcesjcqNaIWDBYDLt-7" vertex="1">
          <mxGeometry width="100" height="194" as="geometry" />
        </mxCell>
        <mxCell id="uYf6ClkmV7B5uEDgVQdm-20" value="工单创建" style="fillColor=none;strokeColor=none;align=left;spacing=20;fontSize=14;" parent="uYf6ClkmV7B5uEDgVQdm-19" vertex="1">
          <mxGeometry width="100" height="30" relative="1" as="geometry">
            <mxPoint y="10" as="offset" />
          </mxGeometry>
        </mxCell>
        <mxCell id="uYf6ClkmV7B5uEDgVQdm-21" value="工单审核" style="fillColor=#0085FC;strokeColor=none;fontColor=#ffffff;align=left;spacing=20;fontSize=14;" parent="uYf6ClkmV7B5uEDgVQdm-19" vertex="1">
          <mxGeometry width="100" height="30" relative="1" as="geometry">
            <mxPoint y="40" as="offset" />
          </mxGeometry>
        </mxCell>
        <mxCell id="uYf6ClkmV7B5uEDgVQdm-22" value="工单实施" style="fillColor=none;strokeColor=none;align=left;spacing=20;fontSize=14;" parent="uYf6ClkmV7B5uEDgVQdm-19" vertex="1">
          <mxGeometry width="100" height="30" relative="1" as="geometry">
            <mxPoint y="70" as="offset" />
          </mxGeometry>
        </mxCell>
        <mxCell id="su9JcesjcqNaIWDBYDLt-4" value="工单抽检" style="fillColor=none;strokeColor=none;align=left;spacing=20;fontSize=14;" parent="uYf6ClkmV7B5uEDgVQdm-19" vertex="1">
          <mxGeometry y="104" width="100" height="30" as="geometry" />
        </mxCell>
        <mxCell id="su9JcesjcqNaIWDBYDLt-5" value="工单入库" style="fillColor=none;strokeColor=none;align=left;spacing=20;fontSize=14;" parent="uYf6ClkmV7B5uEDgVQdm-19" vertex="1">
          <mxGeometry y="134" width="100" height="30" as="geometry" />
        </mxCell>
        <mxCell id="su9JcesjcqNaIWDBYDLt-6" value="工单结算" style="fillColor=none;strokeColor=none;align=left;spacing=20;fontSize=14;" parent="uYf6ClkmV7B5uEDgVQdm-19" vertex="1">
          <mxGeometry y="164" width="100" height="30" as="geometry" />
        </mxCell>
        <mxCell id="CzsnoWpOFmlCXd0RX5Xq-0" value="产品线" style="text;html=1;align=center;verticalAlign=middle;resizable=0;points=[];autosize=1;fontSize=14;" parent="NJt9awCA1hXl86DGp1sZ-11" vertex="1">
          <mxGeometry x="165" y="802" width="60" height="20" as="geometry" />
        </mxCell>
        <mxCell id="CzsnoWpOFmlCXd0RX5Xq-1" value="&lt;span&gt;Select&lt;/span&gt;" style="rounded=0;whiteSpace=wrap;html=1;fontSize=14;fillColor=#D6D6D6;" parent="NJt9awCA1hXl86DGp1sZ-11" vertex="1">
          <mxGeometry x="230" y="800" width="70" height="25" as="geometry" />
        </mxCell>
        <mxCell id="I-4cFuCh_W1NnPNkLxsY-4" value="" style="rounded=0;whiteSpace=wrap;html=1;fontSize=14;" parent="NJt9awCA1hXl86DGp1sZ-11" vertex="1">
          <mxGeometry x="130" y="5390" width="540" height="85" as="geometry" />
        </mxCell>
        <mxCell id="I-4cFuCh_W1NnPNkLxsY-6" value="&lt;font style=&quot;font-size: 16px&quot;&gt;实施记录&lt;/font&gt;" style="text;html=1;align=center;verticalAlign=middle;resizable=0;points=[];autosize=1;fontSize=20;direction=south;rotation=0;" parent="NJt9awCA1hXl86DGp1sZ-11" vertex="1">
          <mxGeometry x="140" y="5150" width="80" height="30" as="geometry" />
        </mxCell>
        <mxCell id="I-4cFuCh_W1NnPNkLxsY-7" value="实施单位" style="text;html=1;align=center;verticalAlign=middle;resizable=0;points=[];autosize=1;fontSize=14;" parent="NJt9awCA1hXl86DGp1sZ-11" vertex="1">
          <mxGeometry x="155" y="4989" width="70" height="20" as="geometry" />
        </mxCell>
        <mxCell id="I-4cFuCh_W1NnPNkLxsY-9" value="实施单位" style="text;html=1;align=center;verticalAlign=middle;resizable=0;points=[];autosize=1;fontSize=14;" parent="NJt9awCA1hXl86DGp1sZ-11" vertex="1">
          <mxGeometry x="155" y="4989" width="70" height="20" as="geometry" />
        </mxCell>
        <mxCell id="I-4cFuCh_W1NnPNkLxsY-10" value="实施单位" style="text;html=1;align=center;verticalAlign=middle;resizable=0;points=[];autosize=1;fontSize=14;" parent="NJt9awCA1hXl86DGp1sZ-11" vertex="1">
          <mxGeometry x="155" y="4989" width="70" height="20" as="geometry" />
        </mxCell>
        <mxCell id="I-4cFuCh_W1NnPNkLxsY-11" value="实施单位" style="text;html=1;align=center;verticalAlign=middle;resizable=0;points=[];autosize=1;fontSize=14;" parent="NJt9awCA1hXl86DGp1sZ-11" vertex="1">
          <mxGeometry x="155" y="4989" width="70" height="20" as="geometry" />
        </mxCell>
        <mxCell id="I-4cFuCh_W1NnPNkLxsY-12" value="审核时间" style="text;html=1;align=center;verticalAlign=middle;resizable=0;points=[];autosize=1;fontSize=14;labelBackgroundColor=none;" parent="NJt9awCA1hXl86DGp1sZ-11" vertex="1">
          <mxGeometry x="155" y="5069" width="70" height="20" as="geometry" />
        </mxCell>
        <mxCell id="I-4cFuCh_W1NnPNkLxsY-13" value="2020-09-24" style="text;html=1;align=center;verticalAlign=middle;resizable=0;points=[];autosize=1;fontSize=14;labelBackgroundColor=none;" parent="NJt9awCA1hXl86DGp1sZ-11" vertex="1">
          <mxGeometry x="220" y="5069" width="90" height="20" as="geometry" />
        </mxCell>
        <mxCell id="I-4cFuCh_W1NnPNkLxsY-14" value="2020-09-24" style="text;html=1;align=center;verticalAlign=middle;resizable=0;points=[];autosize=1;fontSize=14;" parent="NJt9awCA1hXl86DGp1sZ-11" vertex="1">
          <mxGeometry x="220" y="5069" width="90" height="20" as="geometry" />
        </mxCell>
        <mxCell id="I-4cFuCh_W1NnPNkLxsY-15" value="实施单位" style="text;html=1;align=center;verticalAlign=middle;resizable=0;points=[];autosize=1;fontSize=14;" parent="NJt9awCA1hXl86DGp1sZ-11" vertex="1">
          <mxGeometry x="155" y="4989" width="70" height="20" as="geometry" />
        </mxCell>
        <mxCell id="I-4cFuCh_W1NnPNkLxsY-19" value="" style="group" parent="NJt9awCA1hXl86DGp1sZ-11" vertex="1" connectable="0">
          <mxGeometry x="113" y="3800" width="231" height="30" as="geometry" />
        </mxCell>
        <mxCell id="I-4cFuCh_W1NnPNkLxsY-16" value="全部" style="rounded=0;whiteSpace=wrap;html=1;fontSize=14;" parent="I-4cFuCh_W1NnPNkLxsY-19" vertex="1">
          <mxGeometry width="77" height="30" as="geometry" />
        </mxCell>
        <mxCell id="I-4cFuCh_W1NnPNkLxsY-17" value="我的待办" style="rounded=0;whiteSpace=wrap;html=1;fontSize=14;fillColor=#dae8fc;strokeColor=#6c8ebf;fontColor=#007FB5;" parent="I-4cFuCh_W1NnPNkLxsY-19" vertex="1">
          <mxGeometry x="77" width="77" height="30" as="geometry" />
        </mxCell>
        <mxCell id="I-4cFuCh_W1NnPNkLxsY-18" value="我提出的" style="rounded=0;whiteSpace=wrap;html=1;fontSize=14;" parent="I-4cFuCh_W1NnPNkLxsY-19" vertex="1">
          <mxGeometry x="154" width="77" height="30" as="geometry" />
        </mxCell>
        <mxCell id="I-4cFuCh_W1NnPNkLxsY-37" value="入库员" style="text;html=1;strokeColor=none;fillColor=none;align=center;verticalAlign=middle;whiteSpace=wrap;rounded=0;labelBackgroundColor=none;fontSize=14;" parent="NJt9awCA1hXl86DGp1sZ-11" vertex="1">
          <mxGeometry x="160" y="5420" width="45" height="20" as="geometry" />
        </mxCell>
        <mxCell id="I-4cFuCh_W1NnPNkLxsY-38" value="仓管" style="text;html=1;strokeColor=none;fillColor=none;align=center;verticalAlign=middle;whiteSpace=wrap;rounded=0;labelBackgroundColor=none;fontSize=14;" parent="NJt9awCA1hXl86DGp1sZ-11" vertex="1">
          <mxGeometry x="202" y="5420" width="40" height="20" as="geometry" />
        </mxCell>
        <mxCell id="I-4cFuCh_W1NnPNkLxsY-39" value="入库时间" style="text;html=1;strokeColor=none;fillColor=none;align=center;verticalAlign=middle;whiteSpace=wrap;rounded=0;labelBackgroundColor=none;fontSize=14;" parent="NJt9awCA1hXl86DGp1sZ-11" vertex="1">
          <mxGeometry x="368" y="5420" width="60" height="20" as="geometry" />
        </mxCell>
        <mxCell id="I-4cFuCh_W1NnPNkLxsY-40" value="2020-09-30 12:23:11" style="text;html=1;strokeColor=none;fillColor=none;align=center;verticalAlign=middle;whiteSpace=wrap;rounded=0;labelBackgroundColor=none;fontSize=14;" parent="NJt9awCA1hXl86DGp1sZ-11" vertex="1">
          <mxGeometry x="424.5" y="5420" width="145.5" height="20" as="geometry" />
        </mxCell>
        <mxCell id="g1TH_4Z1vaufxFGZUotw-0" value="指派下一道工序" style="text;html=1;align=center;verticalAlign=middle;resizable=0;points=[];autosize=1;fontSize=14;" parent="NJt9awCA1hXl86DGp1sZ-11" vertex="1">
          <mxGeometry x="106" y="1874.5" width="110" height="20" as="geometry" />
        </mxCell>
        <mxCell id="g1TH_4Z1vaufxFGZUotw-1" value="Select" style="rounded=0;whiteSpace=wrap;html=1;fontSize=14;" parent="NJt9awCA1hXl86DGp1sZ-11" vertex="1">
          <mxGeometry x="221.25" y="1873" width="395" height="25" as="geometry" />
        </mxCell>
        <mxCell id="NJt9awCA1hXl86DGp1sZ-17" value="备注" parent="0" visible="0" />
        <mxCell id="NJt9awCA1hXl86DGp1sZ-111" value="审核视图可编辑区域" style="shape=umlFrame;whiteSpace=wrap;html=1;rounded=1;glass=0;sketch=0;fontSize=16;width=31;height=193;" parent="NJt9awCA1hXl86DGp1sZ-17" vertex="1">
          <mxGeometry x="9" y="770" width="791" height="500" as="geometry" />
        </mxCell>
        <mxCell id="NJt9awCA1hXl86DGp1sZ-112" style="edgeStyle=orthogonalEdgeStyle;rounded=0;orthogonalLoop=1;jettySize=auto;html=1;fontSize=20;curved=1;dashed=1;dashPattern=1 4;" parent="NJt9awCA1hXl86DGp1sZ-17" source="NJt9awCA1hXl86DGp1sZ-113" edge="1">
          <mxGeometry relative="1" as="geometry">
            <mxPoint x="630" y="1115" as="targetPoint" />
          </mxGeometry>
        </mxCell>
        <mxCell id="NJt9awCA1hXl86DGp1sZ-113" value="审核视图&lt;br style=&quot;font-size: 16px;&quot;&gt;添加的内容" style="text;html=1;align=center;verticalAlign=middle;resizable=0;points=[];autosize=1;fontSize=16;dashed=1;strokeColor=#000000;dashPattern=1 4;" parent="NJt9awCA1hXl86DGp1sZ-17" vertex="1">
          <mxGeometry x="690" y="1080" width="100" height="40" as="geometry" />
        </mxCell>
        <mxCell id="NJt9awCA1hXl86DGp1sZ-130" value="实施完成表编辑区域" style="shape=umlFrame;whiteSpace=wrap;html=1;rounded=1;glass=0;sketch=0;fontSize=16;width=31;height=193;" parent="NJt9awCA1hXl86DGp1sZ-17" vertex="1">
          <mxGeometry x="26" y="1630" width="801" height="343" as="geometry" />
        </mxCell>
        <mxCell id="NJt9awCA1hXl86DGp1sZ-131" value="首检审核视图&lt;br style=&quot;font-size: 16px&quot;&gt;添加的内容" style="text;html=1;align=center;verticalAlign=middle;resizable=0;points=[];autosize=1;fontSize=16;dashed=1;strokeColor=#000000;dashPattern=1 4;" parent="NJt9awCA1hXl86DGp1sZ-17" vertex="1">
          <mxGeometry x="685" y="1773" width="110" height="40" as="geometry" />
        </mxCell>
        <mxCell id="NJt9awCA1hXl86DGp1sZ-135" style="edgeStyle=orthogonalEdgeStyle;curved=1;rounded=0;orthogonalLoop=1;jettySize=auto;html=1;dashed=1;dashPattern=1 4;fontSize=16;" parent="NJt9awCA1hXl86DGp1sZ-17" source="NJt9awCA1hXl86DGp1sZ-136" edge="1">
          <mxGeometry relative="1" as="geometry">
            <mxPoint x="378" y="1764" as="targetPoint" />
          </mxGeometry>
        </mxCell>
        <mxCell id="NJt9awCA1hXl86DGp1sZ-136" value="模板导入的结果&lt;br&gt;在哪里显示？" style="text;html=1;align=center;verticalAlign=middle;resizable=0;points=[];autosize=1;fontSize=16;strokeColor=#000000;dashed=1;dashPattern=1 2;" parent="NJt9awCA1hXl86DGp1sZ-17" vertex="1">
          <mxGeometry x="500" y="1724" width="130" height="40" as="geometry" />
        </mxCell>
        <mxCell id="NJt9awCA1hXl86DGp1sZ-194" style="edgeStyle=orthogonalEdgeStyle;curved=1;rounded=0;orthogonalLoop=1;jettySize=auto;html=1;dashed=1;dashPattern=1 4;fontSize=16;" parent="NJt9awCA1hXl86DGp1sZ-17" source="NJt9awCA1hXl86DGp1sZ-193" target="NJt9awCA1hXl86DGp1sZ-190" edge="1">
          <mxGeometry relative="1" as="geometry" />
        </mxCell>
        <mxCell id="NJt9awCA1hXl86DGp1sZ-193" value="只读" style="text;html=1;align=center;verticalAlign=middle;resizable=0;points=[];autosize=1;fontSize=16;strokeColor=#000000;dashed=1;dashPattern=1 2;" parent="NJt9awCA1hXl86DGp1sZ-17" vertex="1">
          <mxGeometry x="715" y="2850" width="50" height="20" as="geometry" />
        </mxCell>
        <mxCell id="bfiqpeBWppTH1w2yS7td-13" value="点击拆单" style="edgeStyle=orthogonalEdgeStyle;curved=1;rounded=0;orthogonalLoop=1;jettySize=auto;html=1;exitX=1;exitY=0.5;exitDx=0;exitDy=0;dashed=1;dashPattern=1 4;fontSize=16;" parent="NJt9awCA1hXl86DGp1sZ-17" source="NJt9awCA1hXl86DGp1sZ-226" target="bfiqpeBWppTH1w2yS7td-11" edge="1">
          <mxGeometry relative="1" as="geometry" />
        </mxCell>
        <mxCell id="bfiqpeBWppTH1w2yS7td-14" value="点击维修&lt;br&gt;记录查询" style="edgeStyle=orthogonalEdgeStyle;curved=1;rounded=0;orthogonalLoop=1;jettySize=auto;html=1;exitX=1;exitY=0.5;exitDx=0;exitDy=0;entryX=0;entryY=0.627;entryDx=0;entryDy=0;entryPerimeter=0;dashed=1;dashPattern=1 4;fontSize=16;" parent="NJt9awCA1hXl86DGp1sZ-17" source="NJt9awCA1hXl86DGp1sZ-226" target="bfiqpeBWppTH1w2yS7td-1" edge="1">
          <mxGeometry relative="1" as="geometry" />
        </mxCell>
        <mxCell id="I-4cFuCh_W1NnPNkLxsY-23" style="edgeStyle=orthogonalEdgeStyle;rounded=0;orthogonalLoop=1;jettySize=auto;html=1;fontColor=#007FB5;dashed=1;dashPattern=1 2;curved=1;" parent="NJt9awCA1hXl86DGp1sZ-17" source="I-4cFuCh_W1NnPNkLxsY-22" target="bfiqpeBWppTH1w2yS7td-31" edge="1">
          <mxGeometry relative="1" as="geometry" />
        </mxCell>
        <mxCell id="I-4cFuCh_W1NnPNkLxsY-22" value="再加一行，数量为0，工时为0，&lt;br&gt;新的实施单位没有选中" style="text;html=1;align=center;verticalAlign=middle;resizable=0;points=[];autosize=1;fontSize=14;" parent="NJt9awCA1hXl86DGp1sZ-17" vertex="1">
          <mxGeometry x="1000" y="4170" width="210" height="40" as="geometry" />
        </mxCell>
        <mxCell id="I-4cFuCh_W1NnPNkLxsY-25" style="edgeStyle=orthogonalEdgeStyle;curved=1;rounded=0;orthogonalLoop=1;jettySize=auto;html=1;dashed=1;dashPattern=1 2;fontColor=#007FB5;" parent="NJt9awCA1hXl86DGp1sZ-17" source="I-4cFuCh_W1NnPNkLxsY-24" target="bfiqpeBWppTH1w2yS7td-32" edge="1">
          <mxGeometry relative="1" as="geometry" />
        </mxCell>
        <mxCell id="I-4cFuCh_W1NnPNkLxsY-24" value="删除本行，重新计算总数" style="text;html=1;align=center;verticalAlign=middle;resizable=0;points=[];autosize=1;fontSize=14;" parent="NJt9awCA1hXl86DGp1sZ-17" vertex="1">
          <mxGeometry x="1400" y="4440" width="170" height="20" as="geometry" />
        </mxCell>
        <mxCell id="I-4cFuCh_W1NnPNkLxsY-27" value="合计" style="text;html=1;align=center;verticalAlign=middle;resizable=0;points=[];autosize=1;fontSize=14;" parent="NJt9awCA1hXl86DGp1sZ-17" vertex="1">
          <mxGeometry x="860" y="4480" width="40" height="20" as="geometry" />
        </mxCell>
        <mxCell id="I-4cFuCh_W1NnPNkLxsY-28" value="100" style="text;html=1;align=center;verticalAlign=middle;resizable=0;points=[];autosize=1;fontSize=14;" parent="NJt9awCA1hXl86DGp1sZ-17" vertex="1">
          <mxGeometry x="920" y="4480" width="40" height="20" as="geometry" />
        </mxCell>
        <mxCell id="I-4cFuCh_W1NnPNkLxsY-29" value="2323" style="text;html=1;align=center;verticalAlign=middle;resizable=0;points=[];autosize=1;fontSize=14;" parent="NJt9awCA1hXl86DGp1sZ-17" vertex="1">
          <mxGeometry x="1045" y="4480" width="50" height="20" as="geometry" />
        </mxCell>
        <mxCell id="I-4cFuCh_W1NnPNkLxsY-31" value="" style="endArrow=none;dashed=1;html=1;dashPattern=1 3;strokeWidth=2;fontSize=16;" parent="NJt9awCA1hXl86DGp1sZ-17" edge="1">
          <mxGeometry width="50" height="50" relative="1" as="geometry">
            <mxPoint x="850" y="4511" as="sourcePoint" />
            <mxPoint x="1360" y="4511" as="targetPoint" />
          </mxGeometry>
        </mxCell>
        <mxCell id="I-4cFuCh_W1NnPNkLxsY-32" value="拆分前后工时不一致" style="text;html=1;align=center;verticalAlign=middle;resizable=0;points=[];autosize=1;fontSize=14;fillColor=#f8cecc;strokeColor=#b85450;fontColor=#FF0000;" parent="NJt9awCA1hXl86DGp1sZ-17" vertex="1">
          <mxGeometry x="1120" y="4480" width="140" height="20" as="geometry" />
        </mxCell>
        <mxCell id="I-4cFuCh_W1NnPNkLxsY-33" value="120" style="text;html=1;align=center;verticalAlign=middle;resizable=0;points=[];autosize=1;fontSize=14;" parent="NJt9awCA1hXl86DGp1sZ-17" vertex="1">
          <mxGeometry x="910" y="4311" width="40" height="20" as="geometry" />
        </mxCell>
        <mxCell id="I-4cFuCh_W1NnPNkLxsY-34" value="2323" style="text;html=1;align=center;verticalAlign=middle;resizable=0;points=[];autosize=1;fontSize=14;" parent="NJt9awCA1hXl86DGp1sZ-17" vertex="1">
          <mxGeometry x="1035" y="4311" width="50" height="20" as="geometry" />
        </mxCell>
        <mxCell id="NJt9awCA1hXl86DGp1sZ-123" value="问题" parent="0" />
        <mxCell id="wAlXlOLfTSp1UA3SI0B5-60" value="" style="rounded=0;whiteSpace=wrap;html=1;fontSize=14;" parent="NJt9awCA1hXl86DGp1sZ-123" vertex="1">
          <mxGeometry x="130" y="4940" width="540" height="170" as="geometry" />
        </mxCell>
        <mxCell id="wAlXlOLfTSp1UA3SI0B5-61" value="实施单位" style="text;html=1;align=center;verticalAlign=middle;resizable=0;points=[];autosize=1;fontSize=14;" parent="NJt9awCA1hXl86DGp1sZ-123" vertex="1">
          <mxGeometry x="145" y="4979" width="70" height="20" as="geometry" />
        </mxCell>
        <mxCell id="wAlXlOLfTSp1UA3SI0B5-62" value="Select" style="rounded=0;whiteSpace=wrap;html=1;fontSize=14;" parent="NJt9awCA1hXl86DGp1sZ-123" vertex="1">
          <mxGeometry x="215" y="4977" width="70" height="25" as="geometry" />
        </mxCell>
        <mxCell id="wAlXlOLfTSp1UA3SI0B5-63" value="优先级" style="text;html=1;align=center;verticalAlign=middle;resizable=0;points=[];autosize=1;fontSize=14;" parent="NJt9awCA1hXl86DGp1sZ-123" vertex="1">
          <mxGeometry x="300" y="4978" width="60" height="20" as="geometry" />
        </mxCell>
        <mxCell id="wAlXlOLfTSp1UA3SI0B5-64" value="Select" style="rounded=0;whiteSpace=wrap;html=1;fontSize=14;" parent="NJt9awCA1hXl86DGp1sZ-123" vertex="1">
          <mxGeometry x="356" y="4976" width="70" height="25" as="geometry" />
        </mxCell>
        <mxCell id="wAlXlOLfTSp1UA3SI0B5-65" value="要求完成时间" style="text;html=1;align=center;verticalAlign=middle;resizable=0;points=[];autosize=1;fontSize=14;" parent="NJt9awCA1hXl86DGp1sZ-123" vertex="1">
          <mxGeometry x="437" y="4977" width="100" height="20" as="geometry" />
        </mxCell>
        <mxCell id="wAlXlOLfTSp1UA3SI0B5-66" value="Date" style="rounded=0;whiteSpace=wrap;html=1;fontSize=14;" parent="NJt9awCA1hXl86DGp1sZ-123" vertex="1">
          <mxGeometry x="540" y="4975" width="70" height="25" as="geometry" />
        </mxCell>
        <mxCell id="wAlXlOLfTSp1UA3SI0B5-67" value="备注" style="text;html=1;align=center;verticalAlign=middle;resizable=0;points=[];autosize=1;fontSize=14;" parent="NJt9awCA1hXl86DGp1sZ-123" vertex="1">
          <mxGeometry x="170" y="5020.5" width="40" height="20" as="geometry" />
        </mxCell>
        <mxCell id="wAlXlOLfTSp1UA3SI0B5-68" value="Text" style="rounded=0;whiteSpace=wrap;html=1;fontSize=14;" parent="NJt9awCA1hXl86DGp1sZ-123" vertex="1">
          <mxGeometry x="215" y="5020" width="395" height="25" as="geometry" />
        </mxCell>
        <mxCell id="wAlXlOLfTSp1UA3SI0B5-69" value="审核时间" style="text;html=1;align=center;verticalAlign=middle;resizable=0;points=[];autosize=1;fontSize=14;" parent="NJt9awCA1hXl86DGp1sZ-123" vertex="1">
          <mxGeometry x="145" y="5059" width="70" height="20" as="geometry" />
        </mxCell>
        <mxCell id="wAlXlOLfTSp1UA3SI0B5-70" value="2020-09-24" style="text;html=1;align=center;verticalAlign=middle;resizable=0;points=[];autosize=1;fontSize=14;" parent="NJt9awCA1hXl86DGp1sZ-123" vertex="1">
          <mxGeometry x="210" y="5059" width="90" height="20" as="geometry" />
        </mxCell>
        <mxCell id="wAlXlOLfTSp1UA3SI0B5-71" value="" style="rounded=0;whiteSpace=wrap;html=1;fontSize=14;" parent="NJt9awCA1hXl86DGp1sZ-123" vertex="1">
          <mxGeometry x="130" y="5140" width="540" height="230" as="geometry" />
        </mxCell>
        <mxCell id="wAlXlOLfTSp1UA3SI0B5-72" value="&lt;table cellpadding=&quot;4&quot; cellspacing=&quot;0&quot; border=&quot;1&quot; style=&quot;font-size: 1em ; width: 100% ; height: 100%&quot;&gt;&lt;tbody&gt;&lt;tr&gt;&lt;th&gt;工单编号&lt;/th&gt;&lt;td&gt;&lt;b&gt;产品线&lt;/b&gt;&lt;/td&gt;&lt;th&gt;优先级&lt;/th&gt;&lt;td&gt;&lt;b&gt;数量&lt;/b&gt;&lt;/td&gt;&lt;td&gt;&lt;b&gt;工时&lt;/b&gt;&lt;/td&gt;&lt;td&gt;&lt;b&gt;实施单位&lt;/b&gt;&lt;/td&gt;&lt;td&gt;&lt;b&gt;备注&lt;/b&gt;&lt;/td&gt;&lt;/tr&gt;&lt;tr&gt;&lt;td&gt;xxx111&lt;/td&gt;&lt;td&gt;&lt;/td&gt;&lt;td&gt;高&lt;/td&gt;&lt;td&gt;&lt;br&gt;&lt;/td&gt;&lt;td&gt;&lt;br&gt;&lt;/td&gt;&lt;td&gt;&lt;br&gt;&lt;/td&gt;&lt;td&gt;&lt;br&gt;&lt;/td&gt;&lt;/tr&gt;&lt;tr&gt;&lt;td&gt;xxx222&lt;/td&gt;&lt;td&gt;&lt;br&gt;&lt;/td&gt;&lt;td&gt;中&lt;/td&gt;&lt;td&gt;&lt;br&gt;&lt;/td&gt;&lt;td&gt;&lt;br&gt;&lt;/td&gt;&lt;td&gt;&lt;br&gt;&lt;/td&gt;&lt;td&gt;&lt;br&gt;&lt;/td&gt;&lt;/tr&gt;&lt;tr&gt;&lt;td&gt;xxx333&lt;/td&gt;&lt;td&gt;&lt;br&gt;&lt;/td&gt;&lt;td&gt;&lt;br&gt;&lt;/td&gt;&lt;td&gt;&lt;br&gt;&lt;/td&gt;&lt;td&gt;&lt;br&gt;&lt;/td&gt;&lt;td&gt;&lt;br&gt;&lt;/td&gt;&lt;td&gt;&lt;br&gt;&lt;/td&gt;&lt;/tr&gt;&lt;tr&gt;&lt;td&gt;xxx444&lt;/td&gt;&lt;td&gt;&lt;br&gt;&lt;/td&gt;&lt;td&gt;&lt;br&gt;&lt;/td&gt;&lt;td&gt;&lt;br&gt;&lt;/td&gt;&lt;td&gt;&lt;br&gt;&lt;/td&gt;&lt;td&gt;&lt;br&gt;&lt;/td&gt;&lt;td&gt;&lt;br&gt;&lt;/td&gt;&lt;/tr&gt;&lt;/tbody&gt;&lt;/table&gt; " style="verticalAlign=top;align=left;overflow=fill;fontSize=12;fontFamily=Helvetica;html=1;strokeColor=none;fontColor=#000000;" parent="NJt9awCA1hXl86DGp1sZ-123" vertex="1">
          <mxGeometry x="170" y="5170" width="450" height="190" as="geometry" />
        </mxCell>
        <mxCell id="wAlXlOLfTSp1UA3SI0B5-73" value="&lt;font style=&quot;font-size: 16px&quot;&gt;实施记录&lt;/font&gt;" style="text;html=1;align=center;verticalAlign=middle;resizable=0;points=[];autosize=1;fontSize=20;direction=south;rotation=0;" parent="NJt9awCA1hXl86DGp1sZ-123" vertex="1">
          <mxGeometry x="130" y="5140" width="80" height="30" as="geometry" />
        </mxCell>
      </root>
    </mxGraphModel>
  </diagram>
  <diagram id="JzGOGaWVlTGMKoKmL442" name="系统管理页面">
    <mxGraphModel dx="1035" dy="1763" grid="1" gridSize="10" guides="1" tooltips="1" connect="1" arrows="1" fold="1" page="1" pageScale="1" pageWidth="827" pageHeight="1169" math="0" shadow="0">
      <root>
        <mxCell id="oqYI3ofI4eNtObddCJwc-0" />
        <mxCell id="oqYI3ofI4eNtObddCJwc-1" value="可视区域" parent="oqYI3ofI4eNtObddCJwc-0" />
        <mxCell id="nxuUhkBw9cjpqZy0V6j2-0" value="" style="rounded=0;whiteSpace=wrap;html=1;glass=0;sketch=0;strokeColor=#000000;fontSize=16;fillColor=#FFFFFF;fontColor=#FF2B24;" parent="oqYI3ofI4eNtObddCJwc-1" vertex="1">
          <mxGeometry x="711.5" y="-405" width="520" height="390" as="geometry" />
        </mxCell>
        <mxCell id="nxuUhkBw9cjpqZy0V6j2-2" value="&lt;span style=&quot;font-size: 16px ; text-align: center&quot;&gt;角色配置&lt;/span&gt;" style="strokeWidth=1;shadow=0;dashed=0;align=center;html=1;shape=mxgraph.mockup.forms.uRect;fontSize=17;align=left;spacingLeft=5;rounded=0;glass=0;sketch=0;fillColor=#FFFFFF;fontColor=#545454;" parent="oqYI3ofI4eNtObddCJwc-1" vertex="1">
          <mxGeometry x="717" y="-405" width="94" height="30" as="geometry" />
        </mxCell>
        <mxCell id="fgvam9QdfT0ZGoFE5E7N-119" value="" style="rounded=0;whiteSpace=wrap;html=1;glass=0;sketch=0;strokeColor=#000000;fontSize=16;fillColor=#FFFFFF;" parent="oqYI3ofI4eNtObddCJwc-1" vertex="1">
          <mxGeometry x="166" y="-350" width="520" height="310" as="geometry" />
        </mxCell>
        <mxCell id="fgvam9QdfT0ZGoFE5E7N-13" value="" style="rounded=0;whiteSpace=wrap;html=1;glass=0;sketch=0;strokeColor=#000000;fontSize=16;fillColor=#FFFFFF;" parent="oqYI3ofI4eNtObddCJwc-1" vertex="1">
          <mxGeometry x="145.5" y="510" width="574.5" height="760" as="geometry" />
        </mxCell>
        <mxCell id="fgvam9QdfT0ZGoFE5E7N-17" value="" style="rounded=0;whiteSpace=wrap;html=1;glass=0;sketch=0;strokeColor=#000000;fontSize=16;fillColor=#FFFFFF;" parent="oqYI3ofI4eNtObddCJwc-1" vertex="1">
          <mxGeometry x="174" y="570" width="456" height="120" as="geometry" />
        </mxCell>
        <mxCell id="fgvam9QdfT0ZGoFE5E7N-0" value="" style="rounded=0;whiteSpace=wrap;html=1;glass=0;sketch=0;strokeColor=#000000;fontSize=16;fillColor=#FFFFFF;" parent="oqYI3ofI4eNtObddCJwc-1" vertex="1">
          <mxGeometry x="140" y="70" width="520" height="390" as="geometry" />
        </mxCell>
        <mxCell id="fgvam9QdfT0ZGoFE5E7N-1" value="Text" style="text;html=1;strokeColor=none;fillColor=none;align=center;verticalAlign=middle;whiteSpace=wrap;rounded=0;glass=0;sketch=0;fontSize=16;" parent="oqYI3ofI4eNtObddCJwc-1" vertex="1">
          <mxGeometry x="60" y="40" width="40" height="20" as="geometry" />
        </mxCell>
        <mxCell id="fgvam9QdfT0ZGoFE5E7N-3" value="角色配置" style="text;html=1;strokeColor=none;fillColor=none;align=center;verticalAlign=middle;whiteSpace=wrap;rounded=0;glass=0;sketch=0;fontSize=16;" parent="oqYI3ofI4eNtObddCJwc-1" vertex="1">
          <mxGeometry x="140" y="20" width="80" height="20" as="geometry" />
        </mxCell>
        <mxCell id="fgvam9QdfT0ZGoFE5E7N-6" value="品质抽检员" style="text;strokeColor=none;align=center;verticalAlign=middle;rounded=0;glass=0;sketch=0;fontSize=16;whiteSpace=wrap;" parent="oqYI3ofI4eNtObddCJwc-1" vertex="1">
          <mxGeometry x="178" y="130" width="180" height="19" as="geometry" />
        </mxCell>
        <mxCell id="fgvam9QdfT0ZGoFE5E7N-8" value="入库操作员" style="text;html=1;strokeColor=none;fillColor=none;align=center;verticalAlign=middle;whiteSpace=wrap;rounded=0;glass=0;sketch=0;fontSize=16;" parent="oqYI3ofI4eNtObddCJwc-1" vertex="1">
          <mxGeometry x="168" y="215" width="180" height="20" as="geometry" />
        </mxCell>
        <mxCell id="fgvam9QdfT0ZGoFE5E7N-9" value="工单结算" style="text;html=1;strokeColor=none;fillColor=none;align=center;verticalAlign=middle;whiteSpace=wrap;rounded=0;glass=0;sketch=0;fontSize=16;" parent="oqYI3ofI4eNtObddCJwc-1" vertex="1">
          <mxGeometry x="172" y="310" width="180" height="20" as="geometry" />
        </mxCell>
        <mxCell id="fgvam9QdfT0ZGoFE5E7N-12" value="&lt;table cellpadding=&quot;4&quot; cellspacing=&quot;0&quot; border=&quot;1&quot; style=&quot;font-size: 1em ; width: 100% ; height: 100%&quot;&gt;&lt;tbody&gt;&lt;tr&gt;&lt;th&gt;序号&lt;/th&gt;&lt;th&gt;操作用户&lt;/th&gt;&lt;td&gt;&lt;b&gt;操作时间&lt;/b&gt;&lt;/td&gt;&lt;td&gt;&lt;b&gt;日志内容&lt;/b&gt;&lt;/td&gt;&lt;/tr&gt;&lt;tr&gt;&lt;td&gt;&lt;br&gt;&lt;/td&gt;&lt;td&gt;&lt;br&gt;&lt;/td&gt;&lt;td&gt;&lt;br&gt;&lt;/td&gt;&lt;td&gt;&lt;br&gt;&lt;/td&gt;&lt;/tr&gt;&lt;tr&gt;&lt;td&gt;&lt;br&gt;&lt;/td&gt;&lt;td&gt;&lt;br&gt;&lt;/td&gt;&lt;td&gt;&lt;b&gt;&lt;br&gt;&lt;/b&gt;&lt;/td&gt;&lt;td&gt;&lt;br&gt;&lt;/td&gt;&lt;/tr&gt;&lt;tr&gt;&lt;td&gt;&lt;br&gt;&lt;/td&gt;&lt;td&gt;&lt;br&gt;&lt;/td&gt;&lt;td&gt;&lt;br&gt;&lt;/td&gt;&lt;td&gt;&lt;br&gt;&lt;/td&gt;&lt;/tr&gt;&lt;tr&gt;&lt;td&gt;&lt;br&gt;&lt;/td&gt;&lt;td&gt;&lt;br&gt;&lt;/td&gt;&lt;td&gt;&lt;br&gt;&lt;/td&gt;&lt;td&gt;&lt;br&gt;&lt;/td&gt;&lt;/tr&gt;&lt;tr&gt;&lt;td&gt;&lt;br&gt;&lt;/td&gt;&lt;td&gt;&lt;br&gt;&lt;/td&gt;&lt;td&gt;&lt;br&gt;&lt;/td&gt;&lt;td&gt;&lt;br&gt;&lt;/td&gt;&lt;/tr&gt;&lt;/tbody&gt;&lt;/table&gt; " style="verticalAlign=top;align=left;overflow=fill;fontSize=12;fontFamily=Helvetica;html=1;rounded=0;glass=0;sketch=0;strokeColor=#000000;fillColor=#FFFFFF;" parent="oqYI3ofI4eNtObddCJwc-1" vertex="1">
          <mxGeometry x="209.5" y="-270" width="380.5" height="190" as="geometry" />
        </mxCell>
        <mxCell id="fgvam9QdfT0ZGoFE5E7N-15" value="产品线" style="text;html=1;strokeColor=none;fillColor=none;align=center;verticalAlign=middle;whiteSpace=wrap;rounded=0;glass=0;sketch=0;fontSize=16;fontStyle=1" parent="oqYI3ofI4eNtObddCJwc-1" vertex="1">
          <mxGeometry x="166" y="585" width="104" height="20" as="geometry" />
        </mxCell>
        <mxCell id="fgvam9QdfT0ZGoFE5E7N-19" value="角色配置" style="strokeWidth=1;shadow=0;dashed=0;align=center;html=1;shape=mxgraph.mockup.forms.uRect;fontSize=17;fontColor=#666666;align=left;spacingLeft=5;strokeColor=#666666;rounded=0;glass=0;sketch=0;fillColor=#FFFFFF;" parent="oqYI3ofI4eNtObddCJwc-1" vertex="1">
          <mxGeometry x="160" y="510" width="80" height="30" as="geometry" />
        </mxCell>
        <mxCell id="fgvam9QdfT0ZGoFE5E7N-20" value="&lt;span style=&quot;font-size: 16px ; text-align: center&quot;&gt;可选项配置&lt;/span&gt;" style="strokeWidth=1;shadow=0;dashed=0;align=center;html=1;shape=mxgraph.mockup.forms.uRect;fontSize=17;fontColor=#ffffff;align=left;spacingLeft=5;strokeColor=#008cff;fillColor=#008cff;rounded=0;glass=0;sketch=0;" parent="oqYI3ofI4eNtObddCJwc-1" vertex="1">
          <mxGeometry x="246" y="510" width="94" height="30" as="geometry" />
        </mxCell>
        <mxCell id="fgvam9QdfT0ZGoFE5E7N-21" value="Tab 3" style="strokeWidth=1;shadow=0;dashed=0;align=center;html=1;shape=mxgraph.mockup.forms.uRect;fontSize=17;fontColor=#666666;align=left;spacingLeft=5;strokeColor=#666666;rounded=0;glass=0;sketch=0;fillColor=#FFFFFF;" parent="oqYI3ofI4eNtObddCJwc-1" vertex="1">
          <mxGeometry x="356" y="510" width="70" height="30" as="geometry" />
        </mxCell>
        <mxCell id="fgvam9QdfT0ZGoFE5E7N-24" value="xxx产品线 &lt;u&gt;&lt;font color=&quot;#40c6ff&quot;&gt;删除&lt;/font&gt;&lt;/u&gt;" style="rounded=1;whiteSpace=wrap;html=1;glass=0;sketch=0;strokeColor=#000000;fillColor=#FFFFFF;fontSize=16;align=center;arcSize=48;" parent="oqYI3ofI4eNtObddCJwc-1" vertex="1">
          <mxGeometry x="190" y="610" width="130" height="30" as="geometry" />
        </mxCell>
        <mxCell id="fgvam9QdfT0ZGoFE5E7N-52" style="edgeStyle=orthogonalEdgeStyle;curved=1;rounded=0;orthogonalLoop=1;jettySize=auto;html=1;exitX=1;exitY=0.5;exitDx=0;exitDy=0;entryX=-0.006;entryY=0.581;entryDx=0;entryDy=0;entryPerimeter=0;dashed=1;dashPattern=1 4;fontSize=16;" parent="oqYI3ofI4eNtObddCJwc-1" source="fgvam9QdfT0ZGoFE5E7N-25" target="fgvam9QdfT0ZGoFE5E7N-44" edge="1">
          <mxGeometry relative="1" as="geometry" />
        </mxCell>
        <mxCell id="fgvam9QdfT0ZGoFE5E7N-25" value="添加可选项" style="rounded=1;whiteSpace=wrap;html=1;glass=0;sketch=0;strokeColor=#000000;fillColor=#FFFFFF;fontSize=16;align=center;arcSize=12;" parent="oqYI3ofI4eNtObddCJwc-1" vertex="1">
          <mxGeometry x="520" y="650" width="100" height="30" as="geometry" />
        </mxCell>
        <mxCell id="fgvam9QdfT0ZGoFE5E7N-26" value="yyy产品线 &lt;u&gt;&lt;font color=&quot;#40c6ff&quot;&gt;删除&lt;/font&gt;&lt;/u&gt;" style="rounded=1;whiteSpace=wrap;html=1;glass=0;sketch=0;strokeColor=#000000;fillColor=#FFFFFF;fontSize=16;align=center;arcSize=48;" parent="oqYI3ofI4eNtObddCJwc-1" vertex="1">
          <mxGeometry x="337" y="610" width="130" height="30" as="geometry" />
        </mxCell>
        <mxCell id="fgvam9QdfT0ZGoFE5E7N-27" value="zzz产品线 &lt;u&gt;&lt;font color=&quot;#40c6ff&quot;&gt;删除&lt;/font&gt;&lt;/u&gt;" style="rounded=1;whiteSpace=wrap;html=1;glass=0;sketch=0;strokeColor=#000000;fillColor=#FFFFFF;fontSize=16;align=center;arcSize=48;" parent="oqYI3ofI4eNtObddCJwc-1" vertex="1">
          <mxGeometry x="480" y="610" width="130" height="30" as="geometry" />
        </mxCell>
        <mxCell id="fgvam9QdfT0ZGoFE5E7N-28" value="" style="rounded=0;whiteSpace=wrap;html=1;glass=0;sketch=0;strokeColor=#000000;fontSize=16;fillColor=#FFFFFF;" parent="oqYI3ofI4eNtObddCJwc-1" vertex="1">
          <mxGeometry x="174" y="710" width="456" height="120" as="geometry" />
        </mxCell>
        <mxCell id="fgvam9QdfT0ZGoFE5E7N-29" value="产品型号" style="text;html=1;strokeColor=none;fillColor=none;align=center;verticalAlign=middle;whiteSpace=wrap;rounded=0;glass=0;sketch=0;fontSize=16;fontStyle=1" parent="oqYI3ofI4eNtObddCJwc-1" vertex="1">
          <mxGeometry x="166" y="725" width="104" height="20" as="geometry" />
        </mxCell>
        <mxCell id="fgvam9QdfT0ZGoFE5E7N-30" value="xxx产品型号&amp;nbsp;&lt;u&gt;&lt;font color=&quot;#40c6ff&quot;&gt;删除&lt;/font&gt;&lt;/u&gt;" style="rounded=1;whiteSpace=wrap;html=1;glass=0;sketch=0;strokeColor=#000000;fillColor=#FFFFFF;fontSize=16;align=center;arcSize=48;" parent="oqYI3ofI4eNtObddCJwc-1" vertex="1">
          <mxGeometry x="190" y="750" width="130" height="30" as="geometry" />
        </mxCell>
        <mxCell id="fgvam9QdfT0ZGoFE5E7N-35" style="edgeStyle=orthogonalEdgeStyle;curved=1;rounded=0;orthogonalLoop=1;jettySize=auto;html=1;exitX=1;exitY=0.5;exitDx=0;exitDy=0;entryX=0;entryY=0.372;entryDx=0;entryDy=0;entryPerimeter=0;dashed=1;dashPattern=1 4;fontSize=16;" parent="oqYI3ofI4eNtObddCJwc-1" source="fgvam9QdfT0ZGoFE5E7N-31" target="fgvam9QdfT0ZGoFE5E7N-34" edge="1">
          <mxGeometry relative="1" as="geometry" />
        </mxCell>
        <mxCell id="fgvam9QdfT0ZGoFE5E7N-31" value="添加可选项" style="rounded=1;whiteSpace=wrap;html=1;glass=0;sketch=0;strokeColor=#000000;fillColor=#FFFFFF;fontSize=16;align=center;arcSize=12;" parent="oqYI3ofI4eNtObddCJwc-1" vertex="1">
          <mxGeometry x="520" y="790" width="100" height="30" as="geometry" />
        </mxCell>
        <mxCell id="fgvam9QdfT0ZGoFE5E7N-32" value="yyy产品型号&amp;nbsp;&lt;u&gt;&lt;font color=&quot;#40c6ff&quot;&gt;删除&lt;/font&gt;&lt;/u&gt;" style="rounded=1;whiteSpace=wrap;html=1;glass=0;sketch=0;strokeColor=#000000;fillColor=#FFFFFF;fontSize=16;align=center;arcSize=48;" parent="oqYI3ofI4eNtObddCJwc-1" vertex="1">
          <mxGeometry x="337" y="750" width="130" height="30" as="geometry" />
        </mxCell>
        <mxCell id="fgvam9QdfT0ZGoFE5E7N-33" value="zzz产品型号&amp;nbsp;&lt;u&gt;&lt;font color=&quot;#40c6ff&quot;&gt;删除&lt;/font&gt;&lt;/u&gt;" style="rounded=1;whiteSpace=wrap;html=1;glass=0;sketch=0;strokeColor=#000000;fillColor=#FFFFFF;fontSize=16;align=left;arcSize=48;" parent="oqYI3ofI4eNtObddCJwc-1" vertex="1">
          <mxGeometry x="480" y="750" width="140" height="30" as="geometry" />
        </mxCell>
        <mxCell id="fgvam9QdfT0ZGoFE5E7N-34" value="添加&lt;br&gt;修改产品型号" style="shape=umlFrame;whiteSpace=wrap;html=1;rounded=1;glass=0;sketch=0;strokeColor=#000000;fillColor=#FFFFFF;fontSize=16;width=30;height=165;" parent="oqYI3ofI4eNtObddCJwc-1" vertex="1">
          <mxGeometry x="740" y="750" width="330" height="215" as="geometry" />
        </mxCell>
        <mxCell id="fgvam9QdfT0ZGoFE5E7N-36" value="产品型号" style="text;html=1;strokeColor=none;fillColor=none;align=center;verticalAlign=middle;whiteSpace=wrap;rounded=0;glass=0;sketch=0;fontSize=16;" parent="oqYI3ofI4eNtObddCJwc-1" vertex="1">
          <mxGeometry x="815" y="785" width="73" height="20" as="geometry" />
        </mxCell>
        <mxCell id="fgvam9QdfT0ZGoFE5E7N-37" value="产品小类" style="text;html=1;strokeColor=none;fillColor=none;align=center;verticalAlign=middle;whiteSpace=wrap;rounded=0;glass=0;sketch=0;fontSize=16;" parent="oqYI3ofI4eNtObddCJwc-1" vertex="1">
          <mxGeometry x="815" y="825" width="73" height="20" as="geometry" />
        </mxCell>
        <mxCell id="fgvam9QdfT0ZGoFE5E7N-38" value="" style="rounded=0;whiteSpace=wrap;html=1;glass=0;sketch=0;strokeColor=#000000;fillColor=#FFFFFF;fontSize=16;align=left;" parent="oqYI3ofI4eNtObddCJwc-1" vertex="1">
          <mxGeometry x="246" y="10" width="120" height="25" as="geometry" />
        </mxCell>
        <mxCell id="fgvam9QdfT0ZGoFE5E7N-39" value="" style="rounded=0;whiteSpace=wrap;html=1;glass=0;sketch=0;strokeColor=#000000;fillColor=#FFFFFF;fontSize=16;align=left;" parent="oqYI3ofI4eNtObddCJwc-1" vertex="1">
          <mxGeometry x="888" y="780" width="120" height="25" as="geometry" />
        </mxCell>
        <mxCell id="fgvam9QdfT0ZGoFE5E7N-40" value="" style="rounded=0;whiteSpace=wrap;html=1;glass=0;sketch=0;strokeColor=#000000;fillColor=#FFFFFF;fontSize=16;align=left;" parent="oqYI3ofI4eNtObddCJwc-1" vertex="1">
          <mxGeometry x="888" y="825" width="120" height="25" as="geometry" />
        </mxCell>
        <mxCell id="fgvam9QdfT0ZGoFE5E7N-41" value="取消" style="rounded=1;whiteSpace=wrap;html=1;glass=0;sketch=0;strokeColor=#000000;fillColor=#FFFFFF;fontSize=16;align=center;arcSize=12;" parent="oqYI3ofI4eNtObddCJwc-1" vertex="1">
          <mxGeometry x="900" y="915" width="60" height="30" as="geometry" />
        </mxCell>
        <mxCell id="fgvam9QdfT0ZGoFE5E7N-42" value="确定" style="rounded=1;whiteSpace=wrap;html=1;glass=0;sketch=0;strokeColor=#000000;fillColor=#FFFFFF;fontSize=16;align=center;arcSize=12;" parent="oqYI3ofI4eNtObddCJwc-1" vertex="1">
          <mxGeometry x="990" y="915" width="60" height="30" as="geometry" />
        </mxCell>
        <mxCell id="fgvam9QdfT0ZGoFE5E7N-44" value="添加&lt;br&gt;修改&lt;br&gt;产品线" style="shape=umlFrame;whiteSpace=wrap;html=1;rounded=1;glass=0;sketch=0;strokeColor=#000000;fillColor=#FFFFFF;fontSize=16;width=30;height=150;" parent="oqYI3ofI4eNtObddCJwc-1" vertex="1">
          <mxGeometry x="740" y="440" width="330" height="300" as="geometry" />
        </mxCell>
        <mxCell id="fgvam9QdfT0ZGoFE5E7N-49" value="相关用户" style="text;html=1;strokeColor=none;fillColor=none;align=center;verticalAlign=middle;whiteSpace=wrap;rounded=0;glass=0;sketch=0;fontSize=16;" parent="oqYI3ofI4eNtObddCJwc-1" vertex="1">
          <mxGeometry x="795" y="530" width="73" height="20" as="geometry" />
        </mxCell>
        <mxCell id="fgvam9QdfT0ZGoFE5E7N-51" value="" style="rounded=0;whiteSpace=wrap;html=1;glass=0;sketch=0;strokeColor=#000000;fontSize=16;fillColor=#FFFFFF;" parent="oqYI3ofI4eNtObddCJwc-1" vertex="1">
          <mxGeometry x="785" y="563" width="240" height="115" as="geometry" />
        </mxCell>
        <mxCell id="fgvam9QdfT0ZGoFE5E7N-53" value="张三&amp;nbsp;&lt;u&gt;&lt;font color=&quot;#40c6ff&quot;&gt;删除&lt;/font&gt;&lt;/u&gt;" style="rounded=1;whiteSpace=wrap;html=1;glass=0;sketch=0;strokeColor=#000000;fillColor=#FFFFFF;fontSize=16;align=center;arcSize=48;" parent="oqYI3ofI4eNtObddCJwc-1" vertex="1">
          <mxGeometry x="811" y="575" width="95" height="30" as="geometry" />
        </mxCell>
        <mxCell id="fgvam9QdfT0ZGoFE5E7N-54" value="修改可选项" style="rounded=1;whiteSpace=wrap;html=1;glass=0;sketch=0;strokeColor=#000000;fillColor=#FFFFFF;fontSize=16;align=center;arcSize=12;" parent="oqYI3ofI4eNtObddCJwc-1" vertex="1">
          <mxGeometry x="410" y="650" width="100" height="30" as="geometry" />
        </mxCell>
        <mxCell id="fgvam9QdfT0ZGoFE5E7N-55" value="李四&amp;nbsp;&lt;u&gt;&lt;font color=&quot;#40c6ff&quot;&gt;删除&lt;/font&gt;&lt;/u&gt;" style="rounded=1;whiteSpace=wrap;html=1;glass=0;sketch=0;strokeColor=#000000;fillColor=#FFFFFF;fontSize=16;align=center;arcSize=48;" parent="oqYI3ofI4eNtObddCJwc-1" vertex="1">
          <mxGeometry x="924" y="575" width="95" height="30" as="geometry" />
        </mxCell>
        <mxCell id="fgvam9QdfT0ZGoFE5E7N-56" value="修改可选项" style="rounded=1;whiteSpace=wrap;html=1;glass=0;sketch=0;strokeColor=#000000;fillColor=#FFFFFF;fontSize=16;align=center;arcSize=12;" parent="oqYI3ofI4eNtObddCJwc-1" vertex="1">
          <mxGeometry x="410" y="790" width="100" height="30" as="geometry" />
        </mxCell>
        <mxCell id="fgvam9QdfT0ZGoFE5E7N-57" value="负责人" style="text;html=1;strokeColor=none;fillColor=none;align=center;verticalAlign=middle;whiteSpace=wrap;rounded=0;glass=0;sketch=0;fontSize=16;" parent="oqYI3ofI4eNtObddCJwc-1" vertex="1">
          <mxGeometry x="795" y="504" width="73" height="20" as="geometry" />
        </mxCell>
        <mxCell id="fgvam9QdfT0ZGoFE5E7N-58" value="勿忘" style="rounded=0;whiteSpace=wrap;html=1;glass=0;sketch=0;strokeColor=#000000;fillColor=#FFFFFF;fontSize=16;align=left;" parent="oqYI3ofI4eNtObddCJwc-1" vertex="1">
          <mxGeometry x="868" y="499" width="172" height="25" as="geometry" />
        </mxCell>
        <mxCell id="fgvam9QdfT0ZGoFE5E7N-62" value="" style="rounded=0;whiteSpace=wrap;html=1;glass=0;sketch=0;strokeColor=#000000;fontSize=16;fillColor=#FFFFFF;" parent="oqYI3ofI4eNtObddCJwc-1" vertex="1">
          <mxGeometry x="176" y="860" width="456" height="120" as="geometry" />
        </mxCell>
        <mxCell id="fgvam9QdfT0ZGoFE5E7N-63" value="需求来源" style="text;html=1;strokeColor=none;fillColor=none;align=center;verticalAlign=middle;whiteSpace=wrap;rounded=0;glass=0;sketch=0;fontSize=16;fontStyle=1" parent="oqYI3ofI4eNtObddCJwc-1" vertex="1">
          <mxGeometry x="168" y="875" width="104" height="20" as="geometry" />
        </mxCell>
        <mxCell id="fgvam9QdfT0ZGoFE5E7N-64" value="DR3&amp;nbsp;&lt;u&gt;&lt;font color=&quot;#40c6ff&quot;&gt;删除&lt;/font&gt;&lt;/u&gt;" style="rounded=1;whiteSpace=wrap;html=1;glass=0;sketch=0;strokeColor=#000000;fillColor=#FFFFFF;fontSize=16;align=center;arcSize=48;" parent="oqYI3ofI4eNtObddCJwc-1" vertex="1">
          <mxGeometry x="192" y="900" width="98" height="30" as="geometry" />
        </mxCell>
        <mxCell id="fgvam9QdfT0ZGoFE5E7N-65" value="添加可选项" style="rounded=1;whiteSpace=wrap;html=1;glass=0;sketch=0;strokeColor=#000000;fillColor=#FFFFFF;fontSize=16;align=center;arcSize=12;" parent="oqYI3ofI4eNtObddCJwc-1" vertex="1">
          <mxGeometry x="522" y="940" width="100" height="30" as="geometry" />
        </mxCell>
        <mxCell id="fgvam9QdfT0ZGoFE5E7N-66" value="DR4&amp;nbsp;&lt;u&gt;&lt;font color=&quot;#40c6ff&quot;&gt;删除&lt;/font&gt;&lt;/u&gt;" style="rounded=1;whiteSpace=wrap;html=1;glass=0;sketch=0;strokeColor=#000000;fillColor=#FFFFFF;fontSize=16;align=center;arcSize=48;" parent="oqYI3ofI4eNtObddCJwc-1" vertex="1">
          <mxGeometry x="316" y="900" width="98" height="30" as="geometry" />
        </mxCell>
        <mxCell id="fgvam9QdfT0ZGoFE5E7N-67" value="DR5" style="rounded=0;whiteSpace=wrap;html=1;glass=0;sketch=0;strokeColor=#000000;fillColor=#FFFFFF;fontSize=16;align=left;" parent="oqYI3ofI4eNtObddCJwc-1" vertex="1">
          <mxGeometry x="440" y="905" width="120" height="25" as="geometry" />
        </mxCell>
        <mxCell id="fgvam9QdfT0ZGoFE5E7N-70" value="" style="html=1;verticalLabelPosition=bottom;align=center;labelBackgroundColor=#ffffff;verticalAlign=top;strokeWidth=2;strokeColor=#0080F0;shadow=0;dashed=0;shape=mxgraph.ios7.icons.select;rounded=0;glass=0;sketch=0;fillColor=#FFFFFF;fontSize=16;" parent="oqYI3ofI4eNtObddCJwc-1" vertex="1">
          <mxGeometry x="604" y="908.5" width="18" height="18" as="geometry" />
        </mxCell>
        <mxCell id="fgvam9QdfT0ZGoFE5E7N-72" value="" style="html=1;verticalLabelPosition=bottom;align=center;labelBackgroundColor=#ffffff;verticalAlign=top;strokeWidth=2;strokeColor=#0080F0;shadow=0;dashed=0;shape=mxgraph.ios7.icons.delete;rounded=0;glass=0;sketch=0;fillColor=#FFFFFF;fontSize=16;" parent="oqYI3ofI4eNtObddCJwc-1" vertex="1">
          <mxGeometry x="574" y="908.5" width="18" height="18" as="geometry" />
        </mxCell>
        <mxCell id="fgvam9QdfT0ZGoFE5E7N-73" value="" style="rounded=0;whiteSpace=wrap;html=1;glass=0;sketch=0;strokeColor=#000000;fontSize=16;fillColor=#FFFFFF;" parent="oqYI3ofI4eNtObddCJwc-1" vertex="1">
          <mxGeometry x="176" y="990" width="514" height="120" as="geometry" />
        </mxCell>
        <mxCell id="fgvam9QdfT0ZGoFE5E7N-74" value="费用承当部门" style="text;html=1;strokeColor=none;fillColor=none;align=center;verticalAlign=middle;whiteSpace=wrap;rounded=0;glass=0;sketch=0;fontSize=16;fontStyle=1" parent="oqYI3ofI4eNtObddCJwc-1" vertex="1">
          <mxGeometry x="186" y="1010" width="104" height="20" as="geometry" />
        </mxCell>
        <mxCell id="fgvam9QdfT0ZGoFE5E7N-75" value="产品部&amp;nbsp;&lt;u&gt;&lt;font color=&quot;#40c6ff&quot;&gt;删除&lt;/font&gt;&lt;/u&gt;" style="rounded=1;whiteSpace=wrap;html=1;glass=0;sketch=0;strokeColor=#000000;fillColor=#FFFFFF;fontSize=16;align=center;arcSize=48;" parent="oqYI3ofI4eNtObddCJwc-1" vertex="1">
          <mxGeometry x="192" y="1030" width="98" height="30" as="geometry" />
        </mxCell>
        <mxCell id="fgvam9QdfT0ZGoFE5E7N-76" value="添加可选项" style="rounded=1;whiteSpace=wrap;html=1;glass=0;sketch=0;strokeColor=#000000;fillColor=#FFFFFF;fontSize=16;align=center;arcSize=12;" parent="oqYI3ofI4eNtObddCJwc-1" vertex="1">
          <mxGeometry x="522" y="1070" width="100" height="30" as="geometry" />
        </mxCell>
        <mxCell id="fgvam9QdfT0ZGoFE5E7N-77" value="产品部&amp;nbsp;&lt;u&gt;&lt;font color=&quot;#40c6ff&quot;&gt;删除&lt;/font&gt;&lt;/u&gt;" style="rounded=1;whiteSpace=wrap;html=1;glass=0;sketch=0;strokeColor=#000000;fillColor=#FFFFFF;fontSize=16;align=center;arcSize=48;" parent="oqYI3ofI4eNtObddCJwc-1" vertex="1">
          <mxGeometry x="316" y="1030" width="98" height="30" as="geometry" />
        </mxCell>
        <mxCell id="fgvam9QdfT0ZGoFE5E7N-78" value="&lt;span style=&quot;text-align: center&quot;&gt;产品部-智慧连接部门&lt;/span&gt;" style="rounded=0;whiteSpace=wrap;html=1;glass=0;sketch=0;strokeColor=#000000;fillColor=#FFFFFF;fontSize=16;align=left;" parent="oqYI3ofI4eNtObddCJwc-1" vertex="1">
          <mxGeometry x="440" y="1035" width="160" height="25" as="geometry" />
        </mxCell>
        <mxCell id="fgvam9QdfT0ZGoFE5E7N-79" value="" style="html=1;verticalLabelPosition=bottom;align=center;labelBackgroundColor=#ffffff;verticalAlign=top;strokeWidth=2;strokeColor=#0080F0;shadow=0;dashed=0;shape=mxgraph.ios7.icons.select;rounded=0;glass=0;sketch=0;fillColor=#FFFFFF;fontSize=16;" parent="oqYI3ofI4eNtObddCJwc-1" vertex="1">
          <mxGeometry x="640" y="1038.5" width="18" height="18" as="geometry" />
        </mxCell>
        <mxCell id="fgvam9QdfT0ZGoFE5E7N-80" value="" style="html=1;verticalLabelPosition=bottom;align=center;labelBackgroundColor=#ffffff;verticalAlign=top;strokeWidth=2;strokeColor=#0080F0;shadow=0;dashed=0;shape=mxgraph.ios7.icons.delete;rounded=0;glass=0;sketch=0;fillColor=#FFFFFF;fontSize=16;" parent="oqYI3ofI4eNtObddCJwc-1" vertex="1">
          <mxGeometry x="610" y="1038.5" width="18" height="18" as="geometry" />
        </mxCell>
        <mxCell id="fgvam9QdfT0ZGoFE5E7N-81" value="" style="rounded=0;whiteSpace=wrap;html=1;glass=0;sketch=0;strokeColor=#000000;fontSize=16;fillColor=#FFFFFF;" parent="oqYI3ofI4eNtObddCJwc-1" vertex="1">
          <mxGeometry x="178" y="1130" width="532" height="120" as="geometry" />
        </mxCell>
        <mxCell id="fgvam9QdfT0ZGoFE5E7N-82" value="实施单位" style="text;html=1;strokeColor=none;fillColor=none;align=center;verticalAlign=middle;whiteSpace=wrap;rounded=0;glass=0;sketch=0;fontSize=16;fontStyle=1" parent="oqYI3ofI4eNtObddCJwc-1" vertex="1">
          <mxGeometry x="170" y="1145" width="104" height="20" as="geometry" />
        </mxCell>
        <mxCell id="fgvam9QdfT0ZGoFE5E7N-83" value="定制产品组&amp;nbsp;&lt;u&gt;&lt;font color=&quot;#40c6ff&quot;&gt;删除&lt;/font&gt;&lt;/u&gt;" style="rounded=1;whiteSpace=wrap;html=1;glass=0;sketch=0;strokeColor=#000000;fillColor=#FFFFFF;fontSize=16;align=center;arcSize=48;" parent="oqYI3ofI4eNtObddCJwc-1" vertex="1">
          <mxGeometry x="194" y="1170" width="136" height="30" as="geometry" />
        </mxCell>
        <mxCell id="fgvam9QdfT0ZGoFE5E7N-84" value="添加可选项" style="rounded=1;whiteSpace=wrap;html=1;glass=0;sketch=0;strokeColor=#000000;fillColor=#FFFFFF;fontSize=16;align=center;arcSize=12;" parent="oqYI3ofI4eNtObddCJwc-1" vertex="1">
          <mxGeometry x="524" y="1210" width="100" height="30" as="geometry" />
        </mxCell>
        <mxCell id="fgvam9QdfT0ZGoFE5E7N-86" value="娱乐组" style="rounded=0;whiteSpace=wrap;html=1;glass=0;sketch=0;strokeColor=#000000;fillColor=#FFFFFF;fontSize=16;align=left;" parent="oqYI3ofI4eNtObddCJwc-1" vertex="1">
          <mxGeometry x="490" y="1175" width="120" height="25" as="geometry" />
        </mxCell>
        <mxCell id="fgvam9QdfT0ZGoFE5E7N-87" value="" style="html=1;verticalLabelPosition=bottom;align=center;labelBackgroundColor=#ffffff;verticalAlign=top;strokeWidth=2;strokeColor=#0080F0;shadow=0;dashed=0;shape=mxgraph.ios7.icons.select;rounded=0;glass=0;sketch=0;fillColor=#FFFFFF;fontSize=16;" parent="oqYI3ofI4eNtObddCJwc-1" vertex="1">
          <mxGeometry x="658" y="1181" width="18" height="18" as="geometry" />
        </mxCell>
        <mxCell id="fgvam9QdfT0ZGoFE5E7N-88" value="" style="html=1;verticalLabelPosition=bottom;align=center;labelBackgroundColor=#ffffff;verticalAlign=top;strokeWidth=2;strokeColor=#0080F0;shadow=0;dashed=0;shape=mxgraph.ios7.icons.delete;rounded=0;glass=0;sketch=0;fillColor=#FFFFFF;fontSize=16;" parent="oqYI3ofI4eNtObddCJwc-1" vertex="1">
          <mxGeometry x="622" y="1181" width="18" height="18" as="geometry" />
        </mxCell>
        <mxCell id="fgvam9QdfT0ZGoFE5E7N-89" value="新品组&amp;nbsp;&lt;u&gt;&lt;font color=&quot;#40c6ff&quot;&gt;删除&lt;/font&gt;&lt;/u&gt;" style="rounded=1;whiteSpace=wrap;html=1;glass=0;sketch=0;strokeColor=#000000;fillColor=#FFFFFF;fontSize=16;align=center;arcSize=48;" parent="oqYI3ofI4eNtObddCJwc-1" vertex="1">
          <mxGeometry x="340" y="1172.5" width="136" height="30" as="geometry" />
        </mxCell>
        <mxCell id="fgvam9QdfT0ZGoFE5E7N-91" value="可选项配置" style="strokeWidth=1;shadow=0;dashed=0;align=center;html=1;shape=mxgraph.mockup.forms.uRect;fontSize=17;fontColor=#666666;align=left;spacingLeft=5;strokeColor=#666666;rounded=0;glass=0;sketch=0;fillColor=#FFFFFF;" parent="oqYI3ofI4eNtObddCJwc-1" vertex="1">
          <mxGeometry x="252" y="70" width="102" height="30" as="geometry" />
        </mxCell>
        <mxCell id="fgvam9QdfT0ZGoFE5E7N-92" value="&lt;span style=&quot;font-size: 16px ; text-align: center&quot;&gt;角色配置&lt;/span&gt;" style="strokeWidth=1;shadow=0;dashed=0;align=center;html=1;shape=mxgraph.mockup.forms.uRect;fontSize=17;fontColor=#ffffff;align=left;spacingLeft=5;strokeColor=#008cff;fillColor=#008cff;rounded=0;glass=0;sketch=0;" parent="oqYI3ofI4eNtObddCJwc-1" vertex="1">
          <mxGeometry x="153" y="70" width="94" height="30" as="geometry" />
        </mxCell>
        <mxCell id="fgvam9QdfT0ZGoFE5E7N-93" value="Tab 3" style="strokeWidth=1;shadow=0;dashed=0;align=center;html=1;shape=mxgraph.mockup.forms.uRect;fontSize=17;fontColor=#666666;align=left;spacingLeft=5;strokeColor=#666666;rounded=0;glass=0;sketch=0;fillColor=#FFFFFF;" parent="oqYI3ofI4eNtObddCJwc-1" vertex="1">
          <mxGeometry x="365" y="70" width="70" height="30" as="geometry" />
        </mxCell>
        <mxCell id="fgvam9QdfT0ZGoFE5E7N-94" value="" style="rounded=0;whiteSpace=wrap;html=1;glass=0;sketch=0;strokeColor=#000000;fontSize=16;fillColor=#FFFFFF;" parent="oqYI3ofI4eNtObddCJwc-1" vertex="1">
          <mxGeometry x="320" y="310" width="240" height="115" as="geometry" />
        </mxCell>
        <mxCell id="fgvam9QdfT0ZGoFE5E7N-95" value="李四&amp;nbsp;&lt;u&gt;&lt;font color=&quot;#40c6ff&quot;&gt;删除&lt;/font&gt;&lt;/u&gt;" style="rounded=1;whiteSpace=wrap;html=1;glass=0;sketch=0;strokeColor=#000000;fillColor=#FFFFFF;fontSize=16;align=center;arcSize=48;" parent="oqYI3ofI4eNtObddCJwc-1" vertex="1">
          <mxGeometry x="337" y="320" width="95" height="30" as="geometry" />
        </mxCell>
        <mxCell id="fgvam9QdfT0ZGoFE5E7N-96" value="" style="rounded=0;whiteSpace=wrap;html=1;glass=0;sketch=0;strokeColor=#000000;fontSize=16;fillColor=#FFFFFF;" parent="oqYI3ofI4eNtObddCJwc-1" vertex="1">
          <mxGeometry x="320" y="210" width="240" height="90" as="geometry" />
        </mxCell>
        <mxCell id="fgvam9QdfT0ZGoFE5E7N-97" value="李四&amp;nbsp;&lt;u&gt;&lt;font color=&quot;#40c6ff&quot;&gt;删除&lt;/font&gt;&lt;/u&gt;" style="rounded=1;whiteSpace=wrap;html=1;glass=0;sketch=0;strokeColor=#000000;fillColor=#FFFFFF;fontSize=16;align=center;arcSize=48;" parent="oqYI3ofI4eNtObddCJwc-1" vertex="1">
          <mxGeometry x="331" y="220" width="95" height="30" as="geometry" />
        </mxCell>
        <mxCell id="fgvam9QdfT0ZGoFE5E7N-98" value="" style="rounded=0;whiteSpace=wrap;html=1;glass=0;sketch=0;strokeColor=#000000;fontSize=16;fillColor=#FFFFFF;" parent="oqYI3ofI4eNtObddCJwc-1" vertex="1">
          <mxGeometry x="320" y="105" width="240" height="95" as="geometry" />
        </mxCell>
        <mxCell id="fgvam9QdfT0ZGoFE5E7N-99" value="李四&amp;nbsp;&lt;u&gt;&lt;font color=&quot;#40c6ff&quot;&gt;删除&lt;/font&gt;&lt;/u&gt;" style="rounded=1;whiteSpace=wrap;html=1;glass=0;sketch=0;strokeColor=#000000;fillColor=#FFFFFF;fontSize=16;align=center;arcSize=48;" parent="oqYI3ofI4eNtObddCJwc-1" vertex="1">
          <mxGeometry x="331" y="112" width="95" height="30" as="geometry" />
        </mxCell>
        <mxCell id="fgvam9QdfT0ZGoFE5E7N-105" style="edgeStyle=orthogonalEdgeStyle;curved=1;rounded=0;orthogonalLoop=1;jettySize=auto;html=1;exitX=1;exitY=0.25;exitDx=0;exitDy=0;dashed=1;dashPattern=1 4;fontSize=16;" parent="oqYI3ofI4eNtObddCJwc-1" source="fgvam9QdfT0ZGoFE5E7N-102" target="fgvam9QdfT0ZGoFE5E7N-103" edge="1">
          <mxGeometry relative="1" as="geometry" />
        </mxCell>
        <mxCell id="fgvam9QdfT0ZGoFE5E7N-102" value="设置" style="rounded=1;whiteSpace=wrap;html=1;glass=0;sketch=0;strokeColor=#000000;fillColor=#FFFFFF;fontSize=16;align=center;arcSize=12;" parent="oqYI3ofI4eNtObddCJwc-1" vertex="1">
          <mxGeometry x="574" y="105" width="60" height="30" as="geometry" />
        </mxCell>
        <mxCell id="fgvam9QdfT0ZGoFE5E7N-103" value="配置人员" style="shape=umlFrame;whiteSpace=wrap;html=1;rounded=1;glass=0;sketch=0;strokeColor=#000000;fillColor=#FFFFFF;fontSize=16;width=30;height=150;" parent="oqYI3ofI4eNtObddCJwc-1" vertex="1">
          <mxGeometry x="720" y="80" width="390" height="250" as="geometry" />
        </mxCell>
        <mxCell id="fgvam9QdfT0ZGoFE5E7N-106" value="已选中" style="text;html=1;strokeColor=none;fillColor=none;align=center;verticalAlign=middle;whiteSpace=wrap;rounded=0;glass=0;sketch=0;fontSize=16;" parent="oqYI3ofI4eNtObddCJwc-1" vertex="1">
          <mxGeometry x="780" y="92" width="73" height="20" as="geometry" />
        </mxCell>
        <mxCell id="fgvam9QdfT0ZGoFE5E7N-107" value="x经理" style="rounded=0;whiteSpace=wrap;html=1;glass=0;sketch=0;strokeColor=#000000;fillColor=#FFFFFF;fontSize=16;align=left;" parent="oqYI3ofI4eNtObddCJwc-1" vertex="1">
          <mxGeometry x="860" y="89.5" width="80" height="25" as="geometry" />
        </mxCell>
        <mxCell id="fgvam9QdfT0ZGoFE5E7N-108" value="x经理" style="rounded=0;whiteSpace=wrap;html=1;glass=0;sketch=0;strokeColor=#000000;fillColor=#FFFFFF;fontSize=16;align=left;" parent="oqYI3ofI4eNtObddCJwc-1" vertex="1">
          <mxGeometry x="955" y="89.5" width="80" height="25" as="geometry" />
        </mxCell>
        <mxCell id="fgvam9QdfT0ZGoFE5E7N-109" value="部门树" style="rounded=0;whiteSpace=wrap;html=1;glass=0;sketch=0;strokeColor=#000000;fontSize=16;fillColor=#FFFFFF;" parent="oqYI3ofI4eNtObddCJwc-1" vertex="1">
          <mxGeometry x="762" y="130" width="106" height="190" as="geometry" />
        </mxCell>
        <mxCell id="fgvam9QdfT0ZGoFE5E7N-111" value="&lt;table cellpadding=&quot;4&quot; cellspacing=&quot;0&quot; border=&quot;1&quot; style=&quot;font-size: 1em ; width: 100% ; height: 100%&quot;&gt;&lt;tbody&gt;&lt;tr&gt;&lt;th&gt;序号&lt;/th&gt;&lt;th&gt;用户&lt;/th&gt;&lt;/tr&gt;&lt;tr&gt;&lt;td&gt;&lt;br&gt;&lt;/td&gt;&lt;td&gt;&lt;br&gt;&lt;/td&gt;&lt;/tr&gt;&lt;tr&gt;&lt;td&gt;&lt;br&gt;&lt;/td&gt;&lt;td&gt;&lt;br&gt;&lt;/td&gt;&lt;/tr&gt;&lt;tr&gt;&lt;td&gt;&lt;br&gt;&lt;/td&gt;&lt;td&gt;&lt;br&gt;&lt;/td&gt;&lt;/tr&gt;&lt;tr&gt;&lt;td&gt;&lt;br&gt;&lt;/td&gt;&lt;td&gt;&lt;br&gt;&lt;/td&gt;&lt;/tr&gt;&lt;/tbody&gt;&lt;/table&gt; " style="verticalAlign=top;align=left;overflow=fill;fontSize=12;fontFamily=Helvetica;html=1;rounded=0;glass=0;sketch=0;strokeColor=#000000;fillColor=#FFFFFF;" parent="oqYI3ofI4eNtObddCJwc-1" vertex="1">
          <mxGeometry x="880" y="180" width="209" height="140" as="geometry" />
        </mxCell>
        <mxCell id="fgvam9QdfT0ZGoFE5E7N-113" value="设置" style="rounded=1;whiteSpace=wrap;html=1;glass=0;sketch=0;strokeColor=#000000;fillColor=#FFFFFF;fontSize=16;align=center;arcSize=12;" parent="oqYI3ofI4eNtObddCJwc-1" vertex="1">
          <mxGeometry x="572" y="210" width="60" height="30" as="geometry" />
        </mxCell>
        <mxCell id="fgvam9QdfT0ZGoFE5E7N-114" value="设置" style="rounded=1;whiteSpace=wrap;html=1;glass=0;sketch=0;strokeColor=#000000;fillColor=#FFFFFF;fontSize=16;align=center;arcSize=12;" parent="oqYI3ofI4eNtObddCJwc-1" vertex="1">
          <mxGeometry x="574" y="310" width="60" height="30" as="geometry" />
        </mxCell>
        <mxCell id="fgvam9QdfT0ZGoFE5E7N-115" value="名称" style="text;html=1;strokeColor=none;fillColor=none;align=center;verticalAlign=middle;whiteSpace=wrap;rounded=0;glass=0;sketch=0;fontSize=16;" parent="oqYI3ofI4eNtObddCJwc-1" vertex="1">
          <mxGeometry x="795" y="472.5" width="73" height="20" as="geometry" />
        </mxCell>
        <mxCell id="fgvam9QdfT0ZGoFE5E7N-116" value="mm产品线" style="rounded=0;whiteSpace=wrap;html=1;glass=0;sketch=0;strokeColor=#000000;fillColor=#FFFFFF;fontSize=16;align=left;" parent="oqYI3ofI4eNtObddCJwc-1" vertex="1">
          <mxGeometry x="868" y="470" width="172" height="25" as="geometry" />
        </mxCell>
        <mxCell id="fgvam9QdfT0ZGoFE5E7N-118" style="edgeStyle=orthogonalEdgeStyle;curved=1;rounded=0;orthogonalLoop=1;jettySize=auto;html=1;exitX=1;exitY=0.5;exitDx=0;exitDy=0;dashed=1;dashPattern=1 4;fontSize=16;entryX=0.508;entryY=1;entryDx=0;entryDy=0;entryPerimeter=0;" parent="oqYI3ofI4eNtObddCJwc-1" source="fgvam9QdfT0ZGoFE5E7N-117" target="fgvam9QdfT0ZGoFE5E7N-103" edge="1">
          <mxGeometry relative="1" as="geometry">
            <mxPoint x="910" y="360" as="targetPoint" />
            <Array as="points">
              <mxPoint x="1100" y="546" />
              <mxPoint x="1100" y="390" />
              <mxPoint x="918" y="390" />
            </Array>
          </mxGeometry>
        </mxCell>
        <mxCell id="fgvam9QdfT0ZGoFE5E7N-117" value="设置相关用户" style="rounded=1;whiteSpace=wrap;html=1;glass=0;sketch=0;strokeColor=#000000;fillColor=#FFFFFF;fontSize=16;align=center;arcSize=12;" parent="oqYI3ofI4eNtObddCJwc-1" vertex="1">
          <mxGeometry x="868" y="527" width="102" height="30" as="geometry" />
        </mxCell>
        <mxCell id="nxuUhkBw9cjpqZy0V6j2-1" value="可选项配置" style="strokeWidth=1;shadow=0;dashed=0;align=center;html=1;shape=mxgraph.mockup.forms.uRect;fontSize=17;fontColor=#666666;align=left;spacingLeft=5;strokeColor=#666666;rounded=0;glass=0;sketch=0;fillColor=#FFFFFF;" parent="oqYI3ofI4eNtObddCJwc-1" vertex="1">
          <mxGeometry x="816" y="-405" width="102" height="30" as="geometry" />
        </mxCell>
        <mxCell id="nxuUhkBw9cjpqZy0V6j2-3" value="其他配置" style="strokeWidth=1;shadow=0;dashed=0;align=center;html=1;shape=mxgraph.mockup.forms.uRect;fontSize=17;align=left;spacingLeft=5;rounded=0;glass=0;sketch=0;fillColor=#008CFF;strokeColor=none;fontColor=#FFFFFF;" parent="oqYI3ofI4eNtObddCJwc-1" vertex="1">
          <mxGeometry x="929" y="-405" width="91" height="30" as="geometry" />
        </mxCell>
        <mxCell id="nxuUhkBw9cjpqZy0V6j2-5" value="&lt;p&gt;&lt;span&gt;&lt;font face=&quot;宋体&quot;&gt;品质质检表单界面是否能够看见任务实施过程的内容；&lt;/font&gt;&lt;/span&gt;&lt;/p&gt;&lt;p&gt;&lt;span&gt;&lt;font face=&quot;宋体&quot;&gt;入库表单界面是否可见任务实施和品质检查的内容；&lt;/font&gt;&lt;/span&gt;&lt;/p&gt;&lt;p&gt;&lt;span&gt;&lt;font face=&quot;宋体&quot;&gt;工单结算表单界面是否可见任务实时和品质检查的内容；&lt;/font&gt;&lt;/span&gt;&lt;/p&gt;" style="text;html=1;align=center;verticalAlign=middle;resizable=0;points=[];autosize=1;fontSize=16;fontColor=#545454;" parent="oqYI3ofI4eNtObddCJwc-1" vertex="1">
          <mxGeometry x="738" y="-300" width="420" height="130" as="geometry" />
        </mxCell>
        <mxCell id="xpk6q5MUWkHOSpNfBMT7-0" value="&lt;font color=&quot;#aaaaaa&quot;&gt;输入用户名称&lt;/font&gt;" style="rounded=0;whiteSpace=wrap;html=1;glass=0;sketch=0;strokeColor=#000000;fillColor=#FFFFFF;fontSize=16;align=left;" parent="oqYI3ofI4eNtObddCJwc-1" vertex="1">
          <mxGeometry x="880" y="130" width="150" height="30" as="geometry" />
        </mxCell>
        <mxCell id="xpk6q5MUWkHOSpNfBMT7-1" value="勿忘&amp;nbsp;&lt;u&gt;&lt;font color=&quot;#40c6ff&quot;&gt;删除&lt;/font&gt;&lt;/u&gt;" style="rounded=1;whiteSpace=wrap;html=1;glass=0;sketch=0;strokeColor=#6c8ebf;fillColor=#dae8fc;fontSize=16;align=center;arcSize=48;strokeWidth=2;" parent="oqYI3ofI4eNtObddCJwc-1" vertex="1">
          <mxGeometry x="811" y="615" width="95" height="30" as="geometry" />
        </mxCell>
        <mxCell id="xpk6q5MUWkHOSpNfBMT7-2" value="负责人" style="text;html=1;strokeColor=none;fillColor=none;align=center;verticalAlign=middle;whiteSpace=wrap;rounded=0;glass=0;sketch=0;fontSize=16;" parent="oqYI3ofI4eNtObddCJwc-1" vertex="1">
          <mxGeometry x="1110" y="504" width="73" height="20" as="geometry" />
        </mxCell>
        <mxCell id="xpk6q5MUWkHOSpNfBMT7-3" value="点击下方人员选择负责人" style="rounded=0;whiteSpace=wrap;html=1;glass=0;sketch=0;strokeColor=#000000;fillColor=#FFFFFF;fontSize=16;align=left;" parent="oqYI3ofI4eNtObddCJwc-1" vertex="1">
          <mxGeometry x="1183" y="499" width="187" height="25" as="geometry" />
        </mxCell>
        <mxCell id="xpk6q5MUWkHOSpNfBMT7-6" value="取消" style="rounded=1;whiteSpace=wrap;html=1;glass=0;sketch=0;strokeColor=#000000;fillColor=#FFFFFF;fontSize=16;align=center;arcSize=12;" parent="oqYI3ofI4eNtObddCJwc-1" vertex="1">
          <mxGeometry x="890" y="695" width="60" height="30" as="geometry" />
        </mxCell>
        <mxCell id="xpk6q5MUWkHOSpNfBMT7-7" value="确定" style="rounded=1;whiteSpace=wrap;html=1;glass=0;sketch=0;strokeColor=#000000;fillColor=#FFFFFF;fontSize=16;align=center;arcSize=12;" parent="oqYI3ofI4eNtObddCJwc-1" vertex="1">
          <mxGeometry x="980" y="695" width="60" height="30" as="geometry" />
        </mxCell>
        <mxCell id="xpk6q5MUWkHOSpNfBMT7-8" value="日志列表" style="text;html=1;strokeColor=none;fillColor=none;align=center;verticalAlign=middle;whiteSpace=wrap;rounded=0;glass=0;sketch=0;fontSize=18;fontStyle=1" parent="oqYI3ofI4eNtObddCJwc-1" vertex="1">
          <mxGeometry x="209.5" y="-320" width="80" height="20" as="geometry" />
        </mxCell>
        <mxCell id="ZW8fM5jwwC7szS8vPUIb-1" value="备注" parent="oqYI3ofI4eNtObddCJwc-0" />
        <mxCell id="ZW8fM5jwwC7szS8vPUIb-2" value="未命名图层" parent="oqYI3ofI4eNtObddCJwc-0" />
      </root>
    </mxGraphModel>
  </diagram>
</mxfile>
